<svg width="16" height="16" viewBox="0 0 16 16" fill="none" xmlns="http://www.w3.org/2000/svg">
<g clip-path="url(#clip0)">
<path d="M11.5 9H15C15.5523 9 16 8.55228 16 8C16 7.44772 15.5523 7 15 7H11.5C10.9477 7 10.5 7.44772 10.5 8C10.5 8.55228 10.9477 9 11.5 9Z" fill="#C9AC68"/>
<path d="M1 9H4C4.55228 9 5 8.55228 5 8C5 7.44772 4.55228 7 4 7H1C0.447715 7 0 7.44772 0 8C0 8.55228 0.447715 9 1 9Z" fill="#C9AC68"/>
<path d="M11.4134 6.00469L13.6592 3.76048C14.05 3.37017 14.0503 2.737 13.66 2.34626C13.2697 1.95552 12.6365 1.95517 12.2458 2.34548L10 4.5897C9.60926 4.98 9.60891 5.61317 9.99922 6.00391C10.3895 6.39465 11.0227 6.395 11.4134 6.00469Z" fill="#C9AC68"/>
<path d="M3.75418 13.6545L5.91029 11.5C6.30103 11.1097 6.30138 10.4765 5.91107 10.0858C5.52076 9.69505 4.8876 9.6947 4.49686 10.085L2.34075 12.2395C1.95001 12.6298 1.94966 13.263 2.33997 13.6537C2.73028 14.0445 3.36344 14.0448 3.75418 13.6545Z" fill="#C9AC68"/>
<path d="M9.5772 10.927L12.2939 13.618C12.688 14.005 13.3211 13.9992 13.7081 13.6052C14.095 13.2111 14.0893 12.578 13.6952 12.191L10.9785 9.5C10.5844 9.11305 9.95129 9.11881 9.56433 9.51287C9.17738 9.90693 9.18314 10.5401 9.5772 10.927Z" fill="#C9AC68"/>
<path d="M2.3048 3.809L4.5215 6C4.91556 6.38695 5.5487 6.38119 5.93565 5.98713C6.3226 5.59307 6.31684 4.95993 5.92278 4.57298L3.70609 2.38198C3.31203 1.99503 2.67889 2.00079 2.29194 2.39485C1.90498 2.78891 1.91074 3.42205 2.3048 3.809Z" fill="#C9AC68"/>
<path d="M9 4.5V1C9 0.447715 8.55228 0 8 0C7.44772 0 7 0.447715 7 1V4.5C7 5.05228 7.44772 5.5 8 5.5C8.55228 5.5 9 5.05228 9 4.5Z" fill="#C9AC68"/>
<path d="M9 15V11.5C9 10.9477 8.55228 10.5 8 10.5C7.44772 10.5 7 10.9477 7 11.5V15C7 15.5523 7.44772 16 8 16C8.55228 16 9 15.5523 9 15Z" fill="#C9AC68"/>
<path d="M8 4C7.20888 4 6.43552 4.2346 5.77772 4.67412C5.11992 5.11365 4.60723 5.73836 4.30448 6.46927C4.00173 7.20017 3.92252 8.00444 4.07686 8.78036C4.2312 9.55628 4.61216 10.269 5.17157 10.8284C5.73098 11.3878 6.44372 11.7688 7.21964 11.9231C7.99556 12.0775 8.79983 11.9983 9.53073 11.6955C10.2616 11.3928 10.8864 10.8801 11.3259 10.2223C11.7654 9.56448 12 8.79112 12 8C12 6.93913 11.5786 5.92172 10.8284 5.17157C10.0783 4.42143 9.06087 4 8 4Z" fill="#C9AC68"/>
</g>
<defs>
<clipPath id="clip0">
<path d="M0 0H16V16H0V0Z" fill="white"/>
</clipPath>
</defs>
</svg>
