<svg width="16" height="16" viewBox="0 0 16 16" fill="none" xmlns="http://www.w3.org/2000/svg">
<g clip-path="url(#clip0)">
<path d="M15 8.26H11.5C11.3564 8.26 11.24 8.14359 11.24 8C11.24 7.85641 11.3564 7.74 11.5 7.74H15C15.1436 7.74 15.26 7.85641 15.26 8C15.26 8.14359 15.1436 8.26 15 8.26Z" stroke="#C9AC68" stroke-width="1.48"/>
<path d="M4 8.26H1C0.856406 8.26 0.74 8.14359 0.74 8C0.74 7.85641 0.856406 7.74 1 7.74H4C4.14359 7.74 4.26 7.85641 4.26 8C4.26 8.14359 4.14359 8.26 4 8.26Z" stroke="#C9AC68" stroke-width="1.48"/>
<path d="M13.1363 3.23693L13.1361 3.23703L10.8905 5.48114C10.8904 5.48116 10.8904 5.48118 10.8904 5.4812C10.8904 5.48122 10.8904 5.48123 10.8904 5.48125C10.7888 5.58262 10.6242 5.5825 10.5228 5.48094C10.4213 5.37935 10.4214 5.21472 10.523 5.11324L10.5231 5.11314L12.7688 2.86903C12.7688 2.86901 12.7688 2.86899 12.7688 2.86897C12.7688 2.86895 12.7688 2.86894 12.7689 2.86892C12.8705 2.76755 13.035 2.76767 13.1365 2.86923C13.2379 2.97082 13.2378 3.13545 13.1363 3.23693Z" stroke="#C9AC68" stroke-width="1.48"/>
<path d="M5.38732 10.9765L5.38722 10.9765L3.23121 13.131C3.23119 13.131 3.23118 13.131 3.23116 13.131C3.23114 13.131 3.23113 13.1311 3.23111 13.1311C3.12951 13.2324 2.96496 13.2323 2.86352 13.1308C2.76204 13.0292 2.76213 12.8645 2.86372 12.7631L2.86382 12.763L5.01983 10.6086C5.01985 10.6085 5.01986 10.6085 5.01988 10.6085C5.0199 10.6085 5.01991 10.6085 5.01992 10.6085C5.12152 10.5071 5.28608 10.5072 5.38752 10.6088C5.489 10.7103 5.48891 10.875 5.38732 10.9765Z" stroke="#C9AC68" stroke-width="1.48"/>
<path d="M10.1064 11.4467L12.4036 13.7257C12.7371 14.0532 13.3211 13.9992 13.7081 13.6052C14.095 13.2111 14.1384 12.6262 13.8049 12.2987L11.5077 10.0196C11.1742 9.69218 10.5902 9.74618 10.2032 10.1402C9.81627 10.5343 9.77292 11.1192 10.1064 11.4467Z" fill="#C9AC68"/>
<path d="M2.825 3.2827L2.82501 3.2827L2.82328 3.281C2.72082 3.1804 2.71933 3.01578 2.81993 2.91332C2.92035 2.81106 3.08453 2.80938 3.18703 2.9094C3.18722 2.90959 3.18742 2.90979 3.18761 2.90998L5.40258 5.09928L5.40258 5.09928L5.40431 5.10098C5.50676 5.20158 5.50826 5.3662 5.40765 5.46866C5.30723 5.57092 5.14305 5.5726 5.04055 5.47257C5.04036 5.47238 5.04017 5.47219 5.03997 5.472L2.825 3.2827Z" stroke="#C9AC68" stroke-width="1.48"/>
<path d="M8.26 1V4.5C8.26 4.64359 8.14359 4.76 8 4.76C7.85641 4.76 7.74 4.64359 7.74 4.5V1C7.74 0.856406 7.85641 0.74 8 0.74C8.14359 0.74 8.26 0.856406 8.26 1Z" stroke="#C9AC68" stroke-width="1.48"/>
<path d="M8.26 11.5V15C8.26 15.1436 8.14359 15.26 8 15.26C7.85641 15.26 7.74 15.1436 7.74 15V11.5C7.74 11.3564 7.85641 11.24 8 11.24C8.14359 11.24 8.26 11.3564 8.26 11.5Z" stroke="#C9AC68" stroke-width="1.48"/>
<path d="M6.18884 5.28941C6.72495 4.9312 7.35523 4.74 8 4.74C8.86461 4.74 9.6938 5.08346 10.3052 5.69483C10.9165 6.3062 11.26 7.13539 11.26 8C11.26 8.64477 11.0688 9.27505 10.7106 9.81116C10.3524 10.3473 9.84324 10.7651 9.24755 11.0118C8.65186 11.2586 7.99638 11.3231 7.36401 11.1974C6.73163 11.0716 6.15075 10.7611 5.69483 10.3052C5.23891 9.84925 4.92843 9.26837 4.80264 8.63599C4.67685 8.00362 4.74141 7.34814 4.98815 6.75245C5.2349 6.15676 5.65274 5.64762 6.18884 5.28941Z" stroke="#C9AC68" stroke-width="1.48"/>
</g>
<defs>
<clipPath id="clip0">
<path d="M0 0H16V16H0V0Z" fill="white"/>
</clipPath>
</defs>
</svg>
