<svg width="16" height="16" viewBox="0 0 16 16" fill="none" xmlns="http://www.w3.org/2000/svg">
<g clip-path="url(#clip0)">
<path d="M5.99532 4.00083C6.5747 3.98204 7.14743 4.12882 7.64646 4.42399C8.1455 4.71915 8.55018 5.15049 8.81314 5.66749L9.23947 6.33416L10.0655 6.26083H10.3719C10.8026 6.2254 11.2338 6.32266 11.6077 6.53953C11.9816 6.75641 12.2803 7.08254 12.4636 7.47416L12.6968 7.91416L13.1631 8.09416C13.5715 8.21528 13.9331 8.45828 14.1998 8.79066C14.4664 9.12304 14.6254 9.52896 14.6553 9.95416C14.6715 10.2105 14.6363 10.4675 14.5518 10.71C14.4673 10.9525 14.3352 11.1757 14.1633 11.3663C13.9914 11.557 13.7831 11.7114 13.5507 11.8203C13.3183 11.9293 13.0665 11.9907 12.81 12.0008H2.7645C2.39145 12.0008 1.33227 11.6875 1.33227 10.1808C1.31317 9.83521 1.37839 9.49014 1.5223 9.17538C1.66621 8.86063 1.88449 8.58564 2.1583 8.37416L2.5913 8.06083L2.66457 7.53416C2.66457 7.49416 2.66457 7.42749 2.66457 7.34749C3.03762 4.32083 4.74296 4.00083 5.99532 4.00083ZM5.99532 2.66749C1.59873 2.66749 1.42553 6.89416 1.33227 7.33416C0.898925 7.66746 0.551776 8.09991 0.319955 8.59523C0.0881347 9.09055 -0.0215954 9.63429 -2.7352e-05 10.1808C-0.0317466 10.5709 0.0151921 10.9633 0.138 11.3348C0.260808 11.7063 0.45698 12.0493 0.71486 12.3435C0.97274 12.6376 1.28707 12.8769 1.63917 13.0471C1.99127 13.2173 2.37396 13.3149 2.7645 13.3342H12.83C13.2602 13.323 13.6838 13.2264 14.0762 13.0498C14.4687 12.8733 14.8221 12.6204 15.116 12.3058C15.4098 11.9913 15.6382 11.6214 15.7879 11.2176C15.9375 10.8139 16.0054 10.3844 15.9876 9.95416C15.9557 9.26822 15.7153 8.60837 15.2987 8.06276C14.8821 7.51715 14.309 7.11179 13.656 6.90083C13.3515 6.29834 12.8795 5.79666 12.297 5.45608C11.7144 5.11549 11.0459 4.95046 10.3719 4.98083C10.2254 4.98083 10.0921 4.98083 9.95226 4.98083C9.56899 4.26841 8.99686 3.67555 8.29877 3.26742C7.60068 2.8593 6.80365 2.65171 5.99532 2.66749Z" fill="#666666"/>
</g>
<defs>
<clipPath id="clip0">
<path d="M0 0H16V16H0V0Z" fill="white"/>
</clipPath>
</defs>
</svg>
