<svg width="16" height="16" viewBox="0 0 16 16" fill="none" xmlns="http://www.w3.org/2000/svg">
<g clip-path="url(#clip0)">
<path d="M15.9952 8.00002C15.9952 5.87607 15.1522 3.8391 13.6517 2.33724C12.1512 0.835376 10.1161 -0.00836182 7.99405 -0.00836182C5.87201 -0.00836182 3.83688 0.835376 2.33637 2.33724C0.835864 3.8391 -0.0071128 5.87607 -0.0071128 8.00002C-0.00842876 8.96109 0.167896 9.9141 0.512963 10.811C0.156836 11.414 -0.0233348 12.1048 -0.0071128 12.8051C-0.0387288 13.1973 0.00784155 13.592 0.129894 13.9662C0.251946 14.3403 0.447047 14.6864 0.703867 14.9845C0.960688 15.2825 1.27411 15.5265 1.62593 15.7023C1.97775 15.878 2.36095 15.9821 2.75329 16.0084H12.8347C13.2706 15.9931 13.699 15.8909 14.0949 15.7079C14.4908 15.5249 14.8463 15.2648 15.1406 14.9426C15.4348 14.6205 15.662 14.2429 15.8087 13.8319C15.9555 13.4208 16.0189 12.9846 15.9952 12.5488C16.0027 11.935 15.8211 11.3338 15.4751 10.827C15.8164 9.92348 15.9926 8.96593 15.9952 8.00002ZM7.99405 1.59331C9.69168 1.59331 11.3198 2.26831 12.5202 3.4698C13.7206 4.67129 14.395 6.30086 14.395 8.00002C14.3885 8.56342 14.3078 9.1235 14.1549 9.66577C13.9953 9.57436 13.8295 9.49409 13.6589 9.42551C13.3652 8.81491 12.8999 8.30332 12.32 7.9534C11.7402 7.60348 11.071 7.43043 10.3944 7.45545H9.97833C9.60725 6.72551 9.03985 6.11383 8.34008 5.68934C7.6403 5.26485 6.83598 5.04443 6.01776 5.05294C5.00276 4.98039 3.99578 5.27768 3.18259 5.88996C2.3694 6.50225 1.80487 7.38821 1.59312 8.38442C1.59312 8.25629 1.59312 8.12816 1.59312 8.00002C1.59312 6.30086 2.2675 4.67129 3.46791 3.4698C4.66831 2.26831 6.29642 1.59331 7.99405 1.59331ZM12.7947 14.4067H2.75329C2.75329 14.4067 1.59312 14.3266 1.59312 12.8051C1.57736 12.5 1.63446 12.1956 1.75969 11.9171C1.88492 11.6385 2.07468 11.3939 2.31322 11.2034L2.8333 10.811L2.93731 10.1623C2.93213 10.0956 2.93213 10.0287 2.93731 9.96208C3.24936 7.11109 4.72157 6.75872 5.96975 6.75872C6.51021 6.74677 7.04258 6.89164 7.50258 7.17585C7.96259 7.46007 8.33058 7.87147 8.56213 8.3604L9.0742 9.2173L10.0743 9.1292H10.3944C10.7791 9.0983 11.164 9.18612 11.4974 9.38085C11.8307 9.57558 12.0964 9.86787 12.2587 10.2183L12.5307 10.7629L13.0988 10.9871C13.4515 11.0951 13.7648 11.3045 13.9995 11.5893C14.2343 11.8741 14.3802 12.2217 14.419 12.5888C14.4364 12.816 14.4077 13.0443 14.3347 13.2601C14.2617 13.4758 14.1458 13.6746 13.9941 13.8444C13.8424 14.0142 13.6579 14.1516 13.4518 14.2482C13.2457 14.3448 13.0222 14.3988 12.7947 14.4067Z" fill="#666666"/>
</g>
<defs>
<clipPath id="clip0">
<path d="M0 0H16V16H0V0Z" fill="white"/>
</clipPath>
</defs>
</svg>
