<svg width="16" height="16" viewBox="0 0 16 16" fill="none" xmlns="http://www.w3.org/2000/svg">
<path d="M7.98351 0C10.1 0 12.1299 0.842852 13.6265 2.34314C15.1231 3.84342 15.9638 5.87824 15.9638 7.99997C15.9557 8.70347 15.8551 9.40284 15.6646 10.08C15.4655 9.96583 15.2589 9.86559 15.0461 9.77996C14.6799 9.01751 14.0998 8.37869 13.3769 7.94175C12.654 7.50481 11.8197 7.28873 10.9761 7.31997H10.4574C9.99477 6.40851 9.28736 5.6447 8.41492 5.11465C7.54248 4.58459 6.5397 4.30937 5.51959 4.31998C4.25414 4.2294 2.9987 4.60062 1.98486 5.36517C0.971023 6.12972 0.267189 7.23601 0.00319486 8.47997C0.00319486 8.31997 0.00319486 8.15997 0.00319486 7.99997C0.00319486 5.87824 0.843976 3.84342 2.34058 2.34314C3.83718 0.842852 5.867 0 7.98351 0V0ZM13.9688 15.9999H1.44963C1.44963 15.9999 0.00319486 15.8999 0.00319486 13.9999C-0.0164533 13.619 0.0547381 13.2389 0.210869 12.8911C0.366999 12.5433 0.603572 12.2378 0.900981 12L1.54938 11.51L1.67906 10.7C1.6726 10.6167 1.6726 10.5332 1.67906 10.45C2.0681 6.88997 3.90358 6.44997 5.45974 6.44997C6.13355 6.43505 6.79727 6.61595 7.37078 6.97084C7.9443 7.32573 8.40308 7.83944 8.69177 8.44997L9.33019 9.51996L10.5771 9.40996H10.9761C11.4558 9.37137 11.9357 9.48104 12.3512 9.72419C12.7668 9.96735 13.0981 10.3323 13.3004 10.77L13.6396 11.45L14.3478 11.73C14.7876 11.8647 15.1782 12.1262 15.4708 12.4818C15.7635 12.8374 15.9454 13.2715 15.9938 13.7299C16.0155 14.0136 15.9797 14.2987 15.8887 14.5681C15.7977 14.8375 15.6532 15.0857 15.4641 15.2978C15.2749 15.5098 15.0449 15.6813 14.788 15.802C14.531 15.9226 14.2523 15.99 13.9688 15.9999Z" fill="#666666"/>
</svg>
