<svg width="16" height="16" viewBox="0 0 16 16" fill="none" xmlns="http://www.w3.org/2000/svg">
<g clip-path="url(#clip0)">
<path d="M5.99532 2.66749C1.59873 2.66749 1.42553 6.89383 1.33227 7.3338C0.898925 7.66706 0.551776 8.09948 0.319955 8.59477C0.0881347 9.09005 -0.0215954 9.63375 -2.7352e-05 10.1802C-0.0317466 10.5702 0.0151921 10.9626 0.138 11.3341C0.260808 11.7056 0.45698 12.0486 0.71486 12.3427C0.97274 12.6369 1.28707 12.8761 1.63917 13.0463C1.99127 13.2165 2.37396 13.3141 2.7645 13.3333H12.83C13.2602 13.3222 13.6838 13.2256 14.0762 13.049C14.4687 12.8725 14.8221 12.6196 15.116 12.3051C15.4098 11.9906 15.6382 11.6207 15.7879 11.217C15.9375 10.8133 16.0054 10.3838 15.9876 9.95359C15.9557 9.26771 15.7153 8.6079 15.2987 8.06234C14.8821 7.51678 14.309 7.11144 13.656 6.9005C13.3515 6.29805 12.8795 5.79642 12.297 5.45586C11.7144 5.11529 11.0459 4.95028 10.3719 4.98065C10.2254 4.98065 10.0921 4.98065 9.95226 4.98065C9.56899 4.26828 8.99686 3.67547 8.29877 3.26738C7.60068 2.85928 6.80365 2.65171 5.99532 2.66749Z" fill="#666666"/>
</g>
<defs>
<clipPath id="clip0">
<path d="M0 0H16V16H0V0Z" fill="white"/>
</clipPath>
</defs>
</svg>
