<svg width="24" height="25" viewBox="0 0 24 25" fill="none" xmlns="http://www.w3.org/2000/svg">
<path d="M11.5349 6.75864C12.1029 6.74904 12.6555 6.5694 13.1232 6.24229C13.5909 5.91518 13.9529 5.45518 14.1638 4.92005C14.3746 4.38493 14.4249 3.79854 14.3083 3.23452C14.1917 2.67051 13.9134 2.15401 13.5084 1.7499C13.1034 1.34579 12.5897 1.07207 12.0318 0.96313C11.4739 0.854189 10.8968 0.914876 10.3728 1.13757C9.84884 1.36027 9.40142 1.73504 9.08672 2.21483C8.77202 2.69462 8.60408 3.25803 8.604 3.83432C8.60395 4.22248 8.68008 4.60678 8.82795 4.96479C8.97582 5.3228 9.19248 5.64736 9.46529 5.91956C9.73809 6.19175 10.0616 6.40613 10.4169 6.55019C10.7722 6.69426 11.1523 6.76511 11.5349 6.75864Z" fill="white"/>
<path d="M16.9834 11.7008C16.9695 11.6362 16.9469 11.5739 16.9161 11.5156C16.8876 11.4615 16.8555 11.4094 16.82 11.3596L14.3696 8.18187L14.2831 8.11363C14.2026 7.97996 14.0897 7.86945 13.9551 7.79266C13.8205 7.71586 13.6688 7.67535 13.5144 7.67499H9.55533C9.41904 7.67896 9.28515 7.7123 9.16254 7.77281C9.03994 7.83331 8.93143 7.91959 8.84423 8.02591C8.77514 8.06709 8.71343 8.11982 8.66166 8.18187L6.19205 11.3596C6.15609 11.4072 6.12698 11.4597 6.10557 11.5156C6.06802 11.5715 6.04188 11.6345 6.02869 11.7008C5.99752 11.8226 5.99167 11.9496 6.01152 12.0738C6.03138 12.198 6.07649 12.3166 6.144 12.4222L8.38298 15.8534C8.44094 15.9365 8.51243 16.009 8.59439 16.0678V23.6516C8.62297 23.9949 8.77759 24.3148 9.02763 24.5479C9.27767 24.781 9.60489 24.9104 9.94451 24.9104C10.2841 24.9104 10.6114 24.781 10.8614 24.5479C11.1114 24.3148 11.266 23.9949 11.2946 23.6516V16.8282H11.7463V23.6516C11.7748 23.9949 11.9295 24.3148 12.1795 24.5479C12.4295 24.781 12.7568 24.9104 13.0964 24.9104C13.436 24.9104 13.7632 24.781 14.0133 24.5479C14.2633 24.3148 14.4179 23.9949 14.4465 23.6516V16.0288C14.5113 15.9781 14.5694 15.9191 14.6195 15.8534L16.8585 12.4222C16.9276 12.3173 16.9744 12.1991 16.9959 12.0749C17.0174 11.9506 17.0131 11.8233 16.9834 11.7008ZM8.01782 11.9738L8.604 11.2037V12.8803L8.01782 11.9738ZM14.4561 12.8121V11.2622L15.0038 11.9738L14.4561 12.8121Z" fill="white"/>
</svg>
