<svg width="24" height="24" viewBox="0 0 24 24" fill="none" xmlns="http://www.w3.org/2000/svg">
<path d="M12 6C12.5933 6 13.1734 5.82405 13.6667 5.49441C14.1601 5.16476 14.5446 4.69623 14.7716 4.14805C14.9987 3.59987 15.0581 2.99667 14.9424 2.41473C14.8266 1.83279 14.5409 1.29824 14.1213 0.878681C13.7018 0.459123 13.1672 0.1734 12.5853 0.057644C12.0033 -0.0581116 11.4001 0.00130409 10.852 0.228367C10.3038 0.45543 9.83524 0.839946 9.50559 1.33329C9.17595 1.82664 9 2.40666 9 3C9 3.79565 9.31608 4.55871 9.87868 5.12132C10.4413 5.68393 11.2043 6 12 6Z" fill="white"/>
<path d="M20.5044 13.2049L17.0598 11.1199L15.0996 7.53128C15.0358 7.42429 14.9554 7.3294 14.8617 7.2506C14.7133 7.0922 14.5115 7.00211 14.3003 7H10.6558C10.4766 7.00443 10.3001 7.04663 10.1367 7.1241C9.97323 7.20158 9.82619 7.31276 9.70422 7.45109L6.95421 10.2979C6.82363 10.3972 6.72156 10.5324 6.65923 10.6889C6.62816 10.7531 6.60268 10.8202 6.58311 10.8893V11.0197C6.58311 11.0197 6.58311 11.0698 6.58311 11.0898L6.02169 15.0995C5.99542 15.2215 5.99299 15.3478 6.01453 15.4708C6.03608 15.5938 6.08116 15.7109 6.14702 15.815C6.21289 15.9191 6.29818 16.008 6.39768 16.0763C6.49719 16.1445 6.60884 16.1908 6.72584 16.2121C6.95915 16.2497 7.19708 16.1886 7.38779 16.0421C7.57851 15.8956 7.70654 15.6757 7.74401 15.4303L8.2864 11.581L9.29505 10.5786V17.9363C9.29059 17.9662 9.29059 17.9966 9.29505 18.0265L6.72584 21.5048C6.50754 21.7986 6.40896 22.1717 6.45179 22.542C6.49462 22.9124 6.67535 23.2496 6.95421 23.4796C7.23308 23.7096 7.58725 23.8134 7.9388 23.7683C8.29035 23.7232 8.61049 23.5328 8.82879 23.239L11.6835 19.0189C11.8587 18.7413 11.9606 18.4195 11.9784 18.0866C11.999 18.0075 12.0149 17.9272 12.026 17.8461V16.3725H12.4352L13.6056 18.1769C13.6056 18.1769 13.6627 18.1769 13.6817 18.247L14.2146 22.7579C14.2575 23.1281 14.4376 23.4655 14.7157 23.6965C14.9938 23.9275 15.3472 24.0333 15.699 23.9908C16.0513 23.9432 16.3716 23.7514 16.5907 23.4568C16.8097 23.1623 16.9099 22.7888 16.8695 22.417L16.0511 17.3148C16.0553 17.2715 16.0553 17.2278 16.0511 17.1845C16.0274 16.9663 15.9557 16.7569 15.8418 16.573L15.1281 15.4804V11.2502L15.6134 12.1323C15.6868 12.2565 15.7881 12.3598 15.9084 12.4331C15.978 12.5483 16.0725 12.6445 16.1843 12.7137L19.6575 14.8288C19.8632 14.9538 20.1076 14.9875 20.3369 14.9227C20.5662 14.8578 20.7617 14.6997 20.8803 14.483C20.9989 14.2663 21.0309 14.0089 20.9694 13.7673C20.9078 13.5257 20.7577 13.3198 20.552 13.1949L20.5044 13.2049Z" fill="white"/>
</svg>
