<svg width="24" height="24" viewBox="0 0 24 24" fill="none" xmlns="http://www.w3.org/2000/svg">
<path d="M11.5218 5.71406C10.9647 5.71406 10.4202 5.5465 9.95705 5.23257C9.49388 4.91863 9.13288 4.47242 8.91971 3.95037C8.70654 3.42831 8.65077 2.85386 8.75944 2.29965C8.86812 1.74544 9.13637 1.23637 9.53025 0.836802C9.92414 0.437239 10.426 0.165138 10.9723 0.0548989C11.5187 -0.0553404 12.085 0.00123656 12.5996 0.217479C13.1142 0.433721 13.5541 0.799913 13.8636 1.26975C14.1731 1.73959 14.3382 2.29196 14.3382 2.85703C14.3238 3.61018 14.0225 4.32841 13.4974 4.86107C12.9723 5.39373 12.2642 5.69944 11.5218 5.71406Z" fill="white"/>
<path d="M2.82809 10.0093L6.49889 9.59025L8.91165 7.14272C9.02415 6.9774 9.17408 6.84184 9.34886 6.74739C9.52364 6.65295 9.71818 6.60237 9.9162 6.59988H13.1176C13.2694 6.60214 13.4193 6.63449 13.5588 6.69512H13.6058L17.1733 7.79031L20.2339 6.4856L20.4498 4.41901C20.4592 4.34661 20.4955 4.28061 20.5514 4.23456C20.6073 4.18852 20.6784 4.16591 20.7502 4.1714L21.1633 4.21902C21.1991 4.22259 21.2339 4.23332 21.2656 4.25061C21.2973 4.26789 21.3253 4.29139 21.348 4.31973C21.3707 4.34807 21.3877 4.3807 21.3978 4.41572C21.408 4.45075 21.4113 4.48747 21.4074 4.52377L21.2102 6.42846C21.4036 6.51859 21.5574 6.67799 21.6421 6.87607C21.7327 7.09458 21.7341 7.34061 21.6461 7.56021C21.5581 7.7798 21.3879 7.95502 21.1727 8.04744L21.0412 8.10459L19.4171 23.7516C19.4077 23.824 19.3713 23.89 19.3154 23.9361C19.2596 23.9821 19.1884 24.0047 19.1167 23.9992L18.7036 23.9516C18.6677 23.948 18.633 23.9373 18.6013 23.92C18.5696 23.9027 18.5415 23.8792 18.5188 23.8509C18.4961 23.8226 18.4792 23.7899 18.469 23.7549C18.4588 23.7199 18.4556 23.6832 18.4595 23.6469L20.0367 8.5141L17.53 9.58072C17.4129 9.63181 17.2867 9.65817 17.1592 9.65817C17.0317 9.65817 16.9055 9.63181 16.7884 9.58072L14.4038 8.79028V22.2088C14.3758 22.5442 14.2248 22.8567 13.9805 23.0845C13.7362 23.3122 13.4165 23.4386 13.0847 23.4386C12.7529 23.4386 12.4332 23.3122 12.1889 23.0845C11.9446 22.8567 11.7936 22.5442 11.7657 22.2088V15.5424H11.3244V16.9043C11.3188 16.9822 11.303 17.0591 11.2775 17.1328C11.2689 17.4493 11.1712 17.7566 10.9958 18.0185L8.17937 22.0374C7.96275 22.3177 7.64521 22.4993 7.2966 22.5422C6.948 22.5851 6.59689 22.4857 6.32051 22.2659C6.04413 22.0462 5.86512 21.7241 5.82286 21.3705C5.78061 21.0168 5.87856 20.6607 6.09518 20.3803L8.68634 16.99C8.68634 16.99 8.68634 16.9328 8.68634 16.9043V9.92356L7.58792 11.0473C7.51036 11.119 7.4215 11.1769 7.32505 11.2188H7.24995C7.17073 11.2614 7.08506 11.2904 6.99646 11.3045L3.06279 11.7521C2.94256 11.7775 2.81841 11.7772 2.69829 11.7512C2.57817 11.7252 2.46472 11.6741 2.36521 11.601C2.2657 11.528 2.18232 11.4347 2.12039 11.3271C2.05846 11.2195 2.01935 11.1 2.00557 10.9762C1.99179 10.8524 2.00363 10.727 2.04035 10.6081C2.07707 10.4892 2.13786 10.3794 2.21882 10.2857C2.29977 10.192 2.39912 10.1165 2.5105 10.064C2.62188 10.0114 2.74285 9.98309 2.86565 9.98071L2.82809 10.0093Z" fill="white"/>
</svg>
