<svg width="16" height="16" viewBox="0 0 16 16" fill="none" xmlns="http://www.w3.org/2000/svg">
<g clip-path="url(#clip0)">
<path d="M5.99532 0.667494C1.59873 0.667494 1.42553 4.89392 1.33227 5.33389C0.898925 5.66717 0.551776 6.0996 0.319955 6.59489C0.0881347 7.09018 -0.0215954 7.63389 -2.7352e-05 8.1804C-0.0317466 8.5704 0.0151921 8.96281 0.138 9.3343C0.260808 9.7058 0.45698 10.0488 0.71486 10.3429C0.97274 10.6371 1.28707 10.8763 1.63917 11.0465C1.99127 11.2167 2.37396 11.3143 2.7645 11.3336H12.83C13.2602 11.3224 13.6838 11.2258 14.0762 11.0493C14.4687 10.8727 14.8221 10.6198 15.116 10.3053C15.4098 9.99075 15.6382 9.62086 15.7879 9.21714C15.9375 8.81343 16.0054 8.38396 15.9876 7.95374C15.9557 7.26785 15.7153 6.60803 15.2987 6.06245C14.8821 5.51688 14.309 5.11153 13.656 4.90059C13.3515 4.29813 12.8795 3.79649 12.297 3.45592C11.7144 3.11535 11.0459 2.95033 10.3719 2.98069C10.2254 2.98069 10.0921 2.98069 9.95226 2.98069C9.56899 2.26832 8.99686 1.67549 8.29877 1.26739C7.60068 0.859286 6.80365 0.651714 5.99532 0.667494Z" fill="#666666"/>
<path d="M14.1557 12.3335H1.83189C1.55596 12.3335 1.33228 12.5573 1.33228 12.8335C1.33228 13.1096 1.55596 13.3334 1.83189 13.3334H14.1557C14.4316 13.3334 14.6553 13.1096 14.6553 12.8335C14.6553 12.5573 14.4316 12.3335 14.1557 12.3335Z" fill="#666666"/>
<path d="M14.1557 14.3334H1.83189C1.55596 14.3334 1.33228 14.5572 1.33228 14.8333C1.33228 15.1095 1.55596 15.3333 1.83189 15.3333H14.1557C14.4316 15.3333 14.6553 15.1095 14.6553 14.8333C14.6553 14.5572 14.4316 14.3334 14.1557 14.3334Z" fill="#666666"/>
</g>
<defs>
<clipPath id="clip0">
<path d="M0 0H16V16H0V0Z" fill="white"/>
</clipPath>
</defs>
</svg>
