<svg width="16" height="16" viewBox="0 0 16 16" fill="none" xmlns="http://www.w3.org/2000/svg">
<path d="M6.00497 2.00075C6.58434 1.98196 7.15707 2.12874 7.65611 2.42389C8.15514 2.71904 8.55982 3.15035 8.82278 3.66732L9.24912 4.33395L10.0751 4.26062H10.3816C10.8123 4.2252 11.2435 4.32245 11.6174 4.53931C11.9913 4.75618 12.2899 5.08229 12.4733 5.47389L12.7064 5.91386L13.1727 6.09385C13.5811 6.21496 13.9428 6.45795 14.2094 6.79031C14.4761 7.12267 14.635 7.52857 14.6649 7.95374C14.6811 8.21005 14.6459 8.46701 14.5614 8.70951C14.4769 8.95202 14.3448 9.17517 14.1729 9.36584C14.001 9.55652 13.7927 9.71087 13.5603 9.81983C13.3279 9.92878 13.0761 9.99014 12.8197 10.0003H2.77414C2.40109 10.0003 1.34192 9.68698 1.34192 8.1804C1.32282 7.83481 1.38803 7.48975 1.53194 7.17501C1.67585 6.86027 1.89413 6.58531 2.16794 6.37384L2.60094 6.06052L2.67422 5.53388C2.67422 5.49388 2.67422 5.42722 2.67422 5.34723C3.04726 2.32073 4.7526 2.00075 6.00497 2.00075ZM6.00497 0.667494C1.60838 0.667494 1.43518 4.89392 1.34192 5.33389C0.908569 5.66717 0.56142 6.0996 0.329599 6.59489C0.0977782 7.09018 -0.0119519 7.63389 0.0096162 8.1804C-0.0221031 8.5704 0.0248357 8.96281 0.147644 9.3343C0.270452 9.7058 0.466623 10.0488 0.724504 10.3429C0.982384 10.6371 1.29671 10.8763 1.64881 11.0465C2.00091 11.2167 2.3836 11.3143 2.77414 11.3336H12.8397C13.2698 11.3224 13.6934 11.2258 14.0859 11.0493C14.4783 10.8727 14.8318 10.6198 15.1256 10.3053C15.4195 9.99075 15.6479 9.62086 15.7975 9.21714C15.9471 8.81343 16.015 8.38396 15.9972 7.95374C15.9653 7.26785 15.725 6.60803 15.3084 6.06245C14.8917 5.51688 14.3187 5.11153 13.6657 4.90059C13.3611 4.29813 12.8892 3.79649 12.3066 3.45592C11.724 3.11535 11.0556 2.95033 10.3816 2.98069C10.235 2.98069 10.1018 2.98069 9.9619 2.98069C9.57863 2.26832 9.00651 1.67549 8.30841 1.26739C7.61032 0.859286 6.81329 0.651714 6.00497 0.667494Z" fill="#666666"/>
<path d="M14.1653 12.3335H1.84153C1.5656 12.3335 1.34192 12.5573 1.34192 12.8335C1.34192 13.1096 1.5656 13.3334 1.84153 13.3334H14.1653C14.4412 13.3334 14.6649 13.1096 14.6649 12.8335C14.6649 12.5573 14.4412 12.3335 14.1653 12.3335Z" fill="#666666"/>
<path d="M14.1653 14.3334H1.84153C1.5656 14.3334 1.34192 14.5572 1.34192 14.8333C1.34192 15.1095 1.5656 15.3333 1.84153 15.3333H14.1653C14.4412 15.3333 14.6649 15.1095 14.6649 14.8333C14.6649 14.5572 14.4412 14.3334 14.1653 14.3334Z" fill="#666666"/>
</svg>
