<svg width="16" height="16" viewBox="0 0 16 16" fill="none" xmlns="http://www.w3.org/2000/svg">
<path d="M15.3997 9.99988H2.19985C1.86848 9.99988 1.59985 10.2685 1.59985 10.5999C1.59985 10.9312 1.86848 11.1999 2.19985 11.1999H15.3997C15.7311 11.1999 15.9997 10.9312 15.9997 10.5999C15.9997 10.2685 15.7311 9.99988 15.3997 9.99988Z" fill="#666666"/>
<path d="M15.3997 13.9999H2.19985C1.86848 13.9999 1.59985 14.2685 1.59985 14.5999C1.59985 14.9312 1.86848 15.1999 2.19985 15.1999H15.3997C15.7311 15.1999 15.9997 14.9312 15.9997 14.5999C15.9997 14.2685 15.7311 13.9999 15.3997 13.9999Z" fill="#666666"/>
<path d="M13.7998 11.9999H0.599993C0.268626 11.9999 0 12.2685 0 12.5999C0 12.9312 0.268626 13.1999 0.599993 13.1999H13.7998C14.1312 13.1999 14.3998 12.9312 14.3998 12.5999C14.3998 12.2685 14.1312 11.9999 13.7998 11.9999Z" fill="#666666"/>
<path d="M13.5997 8.79987H15.1996C15.6415 8.79987 15.9996 8.4417 15.9996 7.99987C15.9996 7.55805 15.6415 7.19988 15.1996 7.19988H13.5997C13.1578 7.19988 12.7997 7.55805 12.7997 7.99987C12.7997 8.4417 13.1578 8.79987 13.5997 8.79987Z" fill="#C9AC68"/>
<path d="M0.800102 8.79987H2.40008C2.84191 8.79987 3.20007 8.4417 3.20007 7.99987C3.20007 7.55805 2.84191 7.19988 2.40008 7.19988H0.800102C0.358279 7.19988 0.000111341 7.55805 0.000111341 7.99987C0.000111341 8.4417 0.358279 8.79987 0.800102 8.79987Z" fill="#C9AC68"/>
<path d="M8.79968 2.39997V0.79999C8.79968 0.358168 8.44151 0 7.99969 0C7.55787 0 7.1997 0.358168 7.1997 0.79999V2.39997C7.1997 2.84179 7.55787 3.19996 7.99969 3.19996C8.44151 3.19996 8.79968 2.84179 8.79968 2.39997Z" fill="#C9AC68"/>
<path d="M12.526 4.60686L13.6573 3.4755C13.9698 3.16308 13.9698 2.65656 13.6573 2.34414C13.3449 2.03173 12.8384 2.03173 12.526 2.34414L11.3946 3.4755C11.0822 3.78792 11.0822 4.29444 11.3946 4.60686C11.707 4.91927 12.2136 4.91927 12.526 4.60686Z" fill="#C9AC68"/>
<path d="M4.60329 3.47011L3.47193 2.33875C3.15951 2.02633 2.65299 2.02633 2.34057 2.33875C2.02816 2.65117 2.02816 3.15769 2.34057 3.47011L3.47193 4.60147C3.78434 4.91388 4.29087 4.91388 4.60329 4.60147C4.9157 4.28905 4.9157 3.78252 4.60329 3.47011Z" fill="#C9AC68"/>
<path d="M10.9597 9.1999C11.1174 8.81943 11.1989 8.41175 11.1997 7.99992C11.1997 7.15124 10.8626 6.33731 10.2625 5.7372C9.66237 5.1371 8.84845 4.79996 7.99977 4.79996C7.15108 4.79996 6.33716 5.1371 5.73705 5.7372C5.13694 6.33731 4.7998 7.15124 4.7998 7.99992C4.80064 8.41175 4.88218 8.81943 5.0398 9.1999H10.9597Z" fill="#C9AC68"/>
</svg>
