<svg width="16" height="16" viewBox="0 0 16 16" fill="none" xmlns="http://www.w3.org/2000/svg">
<g clip-path="url(#clip0)">
<path d="M15.4649 10.0877H2.14909C1.81481 10.0877 1.54382 10.3587 1.54382 10.693C1.54382 11.0273 1.81481 11.2983 2.14909 11.2983H15.4649C15.7992 11.2983 16.0702 11.0273 16.0702 10.693C16.0702 10.3587 15.7992 10.0877 15.4649 10.0877Z" fill="#666666"/>
<path d="M15.4649 14.1228H2.14909C1.81481 14.1228 1.54382 14.3938 1.54382 14.7281C1.54382 15.0623 1.81481 15.3333 2.14909 15.3333H15.4649C15.7992 15.3333 16.0702 15.0623 16.0702 14.7281C16.0702 14.3938 15.7992 14.1228 15.4649 14.1228Z" fill="#666666"/>
<path d="M13.851 12.1053H0.535195C0.200917 12.1053 -0.0700684 12.3763 -0.0700684 12.7105C-0.0700684 13.0448 0.200917 13.3158 0.535195 13.3158H13.851C14.1853 13.3158 14.4563 13.0448 14.4563 12.7105C14.4563 12.3763 14.1853 12.1053 13.851 12.1053Z" fill="#666666"/>
<path d="M13.6491 8.8772H15.2632C15.7089 8.8772 16.0702 8.51588 16.0702 8.07018C16.0702 7.62448 15.7089 7.26316 15.2632 7.26316H13.6491C13.2034 7.26316 12.8421 7.62448 12.8421 8.07018C12.8421 8.51588 13.2034 8.8772 13.6491 8.8772Z" fill="#C9AC68"/>
<path d="M0.737027 8.8772H2.35106C2.79677 8.8772 3.15808 8.51588 3.15808 8.07018C3.15808 7.62448 2.79677 7.26316 2.35106 7.26316H0.737027C0.291323 7.26316 -0.0699909 7.62448 -0.0699909 8.07018C-0.0699909 8.51588 0.291323 8.8772 0.737027 8.8772Z" fill="#C9AC68"/>
<path d="M8.80688 2.42105V0.807018C8.80688 0.361314 8.44557 0 7.99987 0C7.55416 0 7.19285 0.361314 7.19285 0.807018V2.42105C7.19285 2.86676 7.55416 3.22807 7.99987 3.22807C8.44557 3.22807 8.80688 2.86676 8.80688 2.42105Z" fill="#C9AC68"/>
<path d="M12.566 4.64734L13.7073 3.50604C14.0225 3.19088 14.0225 2.67991 13.7073 2.36475C13.3921 2.04959 12.8812 2.04959 12.566 2.36475L11.4247 3.50604C11.1096 3.8212 11.1096 4.33218 11.4247 4.64734C11.7399 4.9625 12.2509 4.9625 12.566 4.64734Z" fill="#C9AC68"/>
<path d="M4.57352 3.50058L3.43222 2.35928C3.11706 2.04412 2.60608 2.04412 2.29092 2.35928C1.97576 2.67444 1.97576 3.18542 2.29092 3.50058L3.43222 4.64187C3.74738 4.95703 4.25836 4.95703 4.57352 4.64187C4.88868 4.32671 4.88868 3.81574 4.57352 3.50058Z" fill="#C9AC68"/>
<path d="M6.94285 9.28073C6.69423 9.06522 6.51741 8.77888 6.43609 8.46006C6.35476 8.14125 6.37282 7.8052 6.48783 7.49693C6.60284 7.18866 6.80931 6.92291 7.07958 6.73527C7.34986 6.54764 7.67102 6.44708 8.00004 6.44708C8.32906 6.44708 8.65023 6.54764 8.9205 6.73527C9.19078 6.92291 9.39725 7.18866 9.51226 7.49693C9.62727 7.8052 9.64532 8.14125 9.564 8.46006C9.48267 8.77888 9.30585 9.06522 9.05724 9.28073H10.986C11.145 8.89691 11.2273 8.48565 11.2281 8.0702C11.2281 7.21407 10.888 6.39299 10.2826 5.78761C9.67725 5.18223 8.85618 4.84213 8.00004 4.84213C7.14391 4.84213 6.32283 5.18223 5.71745 5.78761C5.11207 6.39299 4.77197 7.21407 4.77197 8.0702C4.77282 8.48565 4.85507 8.89691 5.01408 9.28073H6.94285Z" fill="#C9AC68"/>
</g>
<defs>
<clipPath id="clip0">
<path d="M0 0H16V16H0V0Z" fill="white"/>
</clipPath>
</defs>
</svg>
