<svg width="16" height="16" viewBox="0 0 16 16" fill="none" xmlns="http://www.w3.org/2000/svg">
<path d="M8.00004 14.6667C6.6815 14.6667 5.39257 14.2757 4.29624 13.5431C3.19991 12.8106 2.34543 11.7694 1.84085 10.5512C1.33626 9.33306 1.20424 7.99262 1.46148 6.69941C1.71871 5.4062 2.35365 4.21832 3.286 3.28597C4.21835 2.35362 5.40623 1.71868 6.69944 1.46144C7.99265 1.20421 9.33309 1.33623 10.5513 1.84082C11.7694 2.3454 12.8106 3.19988 13.5432 4.29621C14.2757 5.39254 14.6667 6.68147 14.6667 8.00001C14.6667 9.76812 13.9643 11.4638 12.7141 12.7141C11.4638 13.9643 9.76815 14.6667 8.00004 14.6667ZM8.00004 2.66668C6.94521 2.66668 5.91406 2.97947 5.037 3.56551C4.15994 4.15154 3.47635 4.98449 3.07269 5.95903C2.66902 6.93357 2.5634 8.00593 2.76919 9.04049C2.97498 10.0751 3.48293 11.0254 4.22881 11.7712C4.97469 12.5171 5.925 13.0251 6.95956 13.2309C7.99413 13.4367 9.06648 13.331 10.041 12.9274C11.0156 12.5237 11.8485 11.8401 12.4345 10.9631C13.0206 10.086 13.3334 9.05485 13.3334 8.00001C13.3334 6.58552 12.7715 5.22897 11.7713 4.22878C10.7711 3.22858 9.41453 2.66668 8.00004 2.66668Z" fill="#666666"/>
<path d="M8.31117 8.74075H11.363C11.5517 8.75209 11.7289 8.83511 11.8583 8.97282C11.9877 9.11053 12.0597 9.2925 12.0593 9.48149C12.0597 9.67049 11.9877 9.85246 11.8583 9.99017C11.7289 10.1279 11.5517 10.2109 11.363 10.2222H8.30376C8.11643 10.2091 7.94108 10.1253 7.81319 9.98777C7.6853 9.85025 7.61441 9.66929 7.61487 9.48149C7.61453 9.2925 7.68644 9.11053 7.81589 8.97282C7.94533 8.83511 8.12251 8.75209 8.31117 8.74075Z" fill="#666666"/>
<path d="M9.09631 11.0074V7.94817C9.10946 7.76083 9.19327 7.58549 9.33078 7.45759C9.4683 7.3297 9.64926 7.25882 9.83705 7.25928C10.026 7.25894 10.208 7.33085 10.3457 7.4603C10.4834 7.58974 10.5665 7.76692 10.5778 7.95558V11.0148C10.5647 11.2022 10.4808 11.3775 10.3433 11.5054C10.2058 11.6333 10.0248 11.7042 9.83705 11.7037C9.64806 11.7041 9.46609 11.6322 9.32838 11.5027C9.19067 11.3733 9.10765 11.1961 9.09631 11.0074Z" fill="#666666"/>
<path d="M6.11115 6.51852H7.63708C7.73205 6.52238 7.82171 6.56334 7.88681 6.63259C7.95191 6.70184 7.98724 6.79387 7.98523 6.88889C7.98721 6.9362 7.97972 6.98343 7.96321 7.0278C7.94669 7.07218 7.92148 7.1128 7.88905 7.1473C7.85662 7.1818 7.81763 7.20948 7.77436 7.2287C7.73109 7.24793 7.68442 7.25832 7.63708 7.25926H6.11115C6.0175 7.25169 5.93043 7.20808 5.86827 7.13763C5.8061 7.06717 5.77368 6.97536 5.77782 6.88149C5.77573 6.78964 5.80927 6.70055 5.87141 6.63289C5.93354 6.56523 6.01946 6.52424 6.11115 6.51852Z" fill="#666666"/>
<path d="M6.51855 7.65187V6.12595C6.51952 6.07925 6.52967 6.0332 6.54843 5.99043C6.5672 5.94766 6.5942 5.90901 6.62791 5.87668C6.66162 5.84435 6.70136 5.81897 6.74488 5.80201C6.78839 5.78504 6.83482 5.77682 6.88152 5.7778C6.92943 5.77479 6.97745 5.78151 7.02269 5.79757C7.06793 5.81362 7.10946 5.83866 7.14476 5.8712C7.18006 5.90373 7.2084 5.94307 7.22809 5.98685C7.24778 6.03064 7.25839 6.07795 7.2593 6.12595V7.65187C7.25544 7.74684 7.21448 7.83651 7.14523 7.9016C7.07598 7.9667 6.98395 8.00204 6.88893 8.00002C6.84162 8.002 6.79439 7.99452 6.75002 7.978C6.70564 7.96149 6.66502 7.93627 6.63052 7.90384C6.59602 7.87142 6.56834 7.83242 6.54912 7.78915C6.52989 7.74588 6.5195 7.69921 6.51855 7.65187Z" fill="#666666"/>
</svg>
