<svg width="16" height="16" viewBox="0 0 16 16" fill="none" xmlns="http://www.w3.org/2000/svg">
<path d="M7.99996 0C6.41772 0 4.87101 0.469189 3.55542 1.34824C2.23984 2.22728 1.21446 3.47671 0.608964 4.93851C0.00346625 6.40031 -0.15496 8.00883 0.153721 9.56067C0.462401 11.1125 1.22432 12.538 2.34314 13.6568C3.46195 14.7756 4.88741 15.5375 6.43925 15.8462C7.99109 16.1549 9.59961 15.9965 11.0614 15.391C12.5232 14.7855 13.7726 13.7601 14.6517 12.4445C15.5307 11.1289 15.9999 9.5822 15.9999 7.99996C15.9999 5.87824 15.1571 3.84342 13.6568 2.34313C12.1565 0.84285 10.1217 0 7.99996 0V0ZM7.19997 7.62396C7.1958 7.72652 7.15157 7.82336 7.07677 7.89367C7.00198 7.96397 6.90259 8.00214 6.79997 7.99996C6.74888 8.0021 6.69787 7.99401 6.64995 7.97618C6.60202 7.95834 6.55815 7.93111 6.52089 7.89609C6.48363 7.86107 6.45374 7.81895 6.43298 7.77222C6.41221 7.72549 6.40099 7.67509 6.39997 7.62396V7.19996H5.95997C5.85883 7.19178 5.76479 7.14469 5.69766 7.0686C5.63052 6.99251 5.5955 6.89334 5.59997 6.79196C5.59771 6.69277 5.63394 6.59656 5.70105 6.52348C5.76816 6.45041 5.86095 6.40614 5.95997 6.39997H6.39997V5.97597C6.39997 5.86988 6.44211 5.76814 6.51713 5.69313C6.59214 5.61811 6.69388 5.57597 6.79997 5.57597C6.90605 5.57597 7.00779 5.61811 7.08281 5.69313C7.15782 5.76814 7.19997 5.86988 7.19997 5.97597V6.39997H7.62396C7.73005 6.39997 7.83179 6.44211 7.9068 6.51712C7.98182 6.59214 8.02396 6.69388 8.02396 6.79996C8.02396 6.90605 7.98182 7.00779 7.9068 7.08281C7.83179 7.15782 7.73005 7.19996 7.62396 7.19996H7.19997V7.62396ZM11.6319 10.3999H10.7679V11.2639C10.7679 11.4761 10.6837 11.6796 10.5336 11.8296C10.3836 11.9797 10.1801 12.0639 9.96795 12.0639C9.75578 12.0639 9.5523 11.9797 9.40227 11.8296C9.25224 11.6796 9.16795 11.4761 9.16795 11.2639V10.3999H8.32796C8.11579 10.3999 7.91231 10.3157 7.76228 10.1656C7.61225 10.0156 7.52796 9.81212 7.52796 9.59995C7.52796 9.38778 7.61225 9.1843 7.76228 9.03427C7.91231 8.88424 8.11579 8.79995 8.32796 8.79995H9.18395V7.94396C9.18395 7.73179 9.26824 7.5283 9.41827 7.37828C9.5683 7.22825 9.77178 7.14396 9.98395 7.14396C10.1961 7.14396 10.3996 7.22825 10.5496 7.37828C10.6997 7.5283 10.7839 7.73179 10.7839 7.94396V8.79995H11.6399C11.8521 8.79995 12.0556 8.88424 12.2056 9.03427C12.3557 9.1843 12.4399 9.38778 12.4399 9.59995C12.4399 9.81212 12.3557 10.0156 12.2056 10.1656C12.0556 10.3157 11.8521 10.3999 11.6399 10.3999H11.6319Z" fill="#666666"/>
</svg>
