<svg width="24" height="24" viewBox="0 0 24 24" fill="none" xmlns="http://www.w3.org/2000/svg">
<path d="M14.83 4H5.16L4.26 7.77H2V16H22V7.77H17.85L14.83 4Z" fill="white"/>
<path d="M8.00005 18H4.05005C4.05005 18.5304 4.26076 19.0391 4.63584 19.4142C5.01091 19.7893 5.51962 20 6.05005 20C6.58048 20 7.08919 19.7893 7.46426 19.4142C7.83933 19.0391 8.05005 18.5304 8.05005 18H8.00005Z" fill="white"/>
<path d="M20 18H16C16 18.5304 16.2107 19.0391 16.5858 19.4142C16.9609 19.7893 17.4696 20 18 20C18.5304 20 19.0391 19.7893 19.4142 19.4142C19.7893 19.0391 20 18.5304 20 18Z" fill="white"/>
</svg>
