<svg width="16" height="16" viewBox="0 0 16 16" fill="none" xmlns="http://www.w3.org/2000/svg">
<g clip-path="url(#clip0)">
<path d="M5.99532 2.02768C6.5747 2.0085 7.14743 2.15832 7.64646 2.45961C8.1455 2.7609 8.55018 3.20118 8.81314 3.72891L9.23947 4.40941L10.0655 4.33455H10.3719C10.8026 4.2984 11.2338 4.39766 11.6077 4.61904C11.9816 4.84042 12.2803 5.17331 12.4636 5.57305L12.6968 6.02218L13.1631 6.20591C13.5715 6.32955 13.9331 6.57758 14.1998 6.91686C14.4664 7.25613 14.6254 7.67048 14.6553 8.10449C14.6715 8.36613 14.6363 8.62844 14.5518 8.87599C14.4673 9.12353 14.3352 9.35132 14.1633 9.54597C13.9914 9.74061 13.7831 9.89817 13.5507 10.0094C13.3183 10.1206 13.0665 10.1832 12.81 10.1936H2.7645C2.39145 10.1936 1.33227 9.87378 1.33227 8.33586C1.31317 7.98308 1.37839 7.63085 1.5223 7.30957C1.66621 6.98828 1.88449 6.70759 2.1583 6.49172L2.5913 6.17189L2.66457 5.6343C2.66457 5.59347 2.66457 5.52542 2.66457 5.44376C3.03762 2.35431 4.74296 2.02768 5.99532 2.02768ZM5.99532 0.666687C1.59873 0.666687 1.42553 4.98102 1.33227 5.43015C0.898925 5.77036 0.551776 6.21178 0.319955 6.71738C0.0881347 7.22297 -0.0215954 7.77799 -2.7352e-05 8.33586C-0.0317466 8.73398 0.0151921 9.13455 0.138 9.51377C0.260808 9.89299 0.45698 10.2431 0.71486 10.5434C0.97274 10.8436 1.28707 11.0879 1.63917 11.2616C1.99127 11.4353 2.37396 11.5349 2.7645 11.5546H12.83C13.2602 11.5432 13.6838 11.4446 14.0762 11.2644C14.4687 11.0842 14.8221 10.826 15.116 10.5049C15.4098 10.1839 15.6382 9.80628 15.7879 9.39417C15.9375 8.98206 16.0054 8.54366 15.9876 8.10449C15.9557 7.40433 15.7153 6.73078 15.2987 6.17386C14.8821 5.61694 14.309 5.20317 13.656 4.98783C13.3515 4.37284 12.8795 3.86076 12.297 3.51311C11.7144 3.16546 11.0459 2.99701 10.3719 3.028C10.2254 3.028 10.0921 3.028 9.95226 3.028C9.56899 2.30081 8.99686 1.69565 8.29877 1.27906C7.60068 0.862469 6.80365 0.650579 5.99532 0.666687Z" fill="#666666"/>
<path d="M2.93677 15.2466L3.59836 13.7972C3.75384 13.4566 3.60958 13.0518 3.27615 12.8929C2.94271 12.7341 2.54636 12.8815 2.39088 13.2221L1.72929 14.6714C1.57381 15.012 1.71807 15.4169 2.0515 15.5757C2.38494 15.7346 2.78128 15.5872 2.93677 15.2466Z" fill="#666666"/>
<path d="M6.27209 15.2408L6.93368 13.7915C7.08917 13.4509 6.94491 13.046 6.61147 12.8872C6.27804 12.7283 5.88169 12.8757 5.72621 13.2163L5.06462 14.6656C4.90914 15.0063 5.05339 15.4111 5.38683 15.57C5.72026 15.7288 6.11661 15.5814 6.27209 15.2408Z" fill="#666666"/>
<path d="M9.60461 15.248L10.2662 13.7987C10.4217 13.4581 10.2774 13.0532 9.94399 12.8944C9.61056 12.7356 9.21421 12.8829 9.05873 13.2235L8.39714 14.6729C8.24166 15.0135 8.38592 15.4184 8.71935 15.5772C9.05279 15.736 9.44913 15.5887 9.60461 15.248Z" fill="#666666"/>
<path d="M12.9333 15.2491L13.5949 13.7998C13.7504 13.4592 13.6062 13.0543 13.2727 12.8955C12.9393 12.7366 12.5429 12.884 12.3875 13.2246L11.7259 14.6739C11.5704 15.0146 11.7147 15.4194 12.0481 15.5783C12.3815 15.7371 12.7779 15.5897 12.9333 15.2491Z" fill="#666666"/>
</g>
<defs>
<clipPath id="clip0">
<path d="M0 0H16V16H0V0Z" fill="white"/>
</clipPath>
</defs>
</svg>
