<svg width="16" height="16" viewBox="0 0 16 16" fill="none" xmlns="http://www.w3.org/2000/svg">
<path d="M6.00497 0.667481C1.60838 0.667481 1.43518 4.83044 1.34192 5.2638C0.908569 5.59208 0.56142 6.01801 0.329599 6.50586C0.0977783 6.99372 -0.0119519 7.52927 0.0096162 8.06756C-0.0221031 8.45171 0.0248357 8.83823 0.147644 9.20414C0.270452 9.57006 0.466623 9.90791 0.724504 10.1976C0.982384 10.4873 1.29671 10.723 1.64881 10.8906C2.00091 11.0582 2.3836 11.1544 2.77414 11.1734H12.8397C13.2698 11.1624 13.6934 11.0672 14.0859 10.8933C14.4783 10.7195 14.8318 10.4704 15.1256 10.1605C15.4195 9.85073 15.6479 9.48639 15.7975 9.08874C15.9471 8.69109 16.015 8.26807 15.9972 7.84431C15.9653 7.16871 15.725 6.5188 15.3084 5.98142C14.8917 5.44404 14.3187 5.04478 13.6657 4.837C13.3611 4.24359 12.8892 3.74949 12.3066 3.41403C11.724 3.07857 11.0556 2.91604 10.3816 2.94594C10.235 2.94594 10.1018 2.94594 9.9619 2.94594C9.57864 2.24427 9.00651 1.66034 8.30841 1.25837C7.61032 0.856393 6.8133 0.651939 6.00497 0.667481Z" fill="#666666"/>
<path d="M2.94641 14.7358L3.608 13.3373C3.76348 13.0087 3.61922 12.618 3.28579 12.4647C2.95235 12.3115 2.55601 12.4537 2.40053 12.7823L1.73894 14.1808C1.58345 14.5095 1.72771 14.9001 2.06115 15.0534C2.39458 15.2067 2.79093 15.0645 2.94641 14.7358Z" fill="#666666"/>
<path d="M6.28186 14.7302L6.94345 13.3318C7.09893 13.0031 6.95467 12.6124 6.62124 12.4592C6.2878 12.3059 5.89146 12.4481 5.73597 12.7768L5.07439 14.1752C4.9189 14.5039 5.06316 14.8946 5.3966 15.0478C5.73003 15.2011 6.12638 15.0589 6.28186 14.7302Z" fill="#666666"/>
<path d="M9.61438 14.7372L10.276 13.3387C10.4315 13.0101 10.2872 12.6194 9.95376 12.4661C9.62032 12.3129 9.22398 12.4551 9.06849 12.7837L8.4069 14.1822C8.25142 14.5109 8.39568 14.9015 8.72911 15.0548C9.06255 15.2081 9.4589 15.0659 9.61438 14.7372Z" fill="#666666"/>
<path d="M12.943 14.7382L13.6046 13.3397C13.7601 13.0111 13.6158 12.6204 13.2824 12.4671C12.9489 12.3139 12.5526 12.4561 12.3971 12.7847L11.7355 14.1832C11.58 14.5119 11.7243 14.9025 12.0577 15.0558C12.3912 15.2091 12.7875 15.0669 12.943 14.7382Z" fill="#666666"/>
</svg>
