<svg width="16" height="16" viewBox="0 0 16 16" fill="none" xmlns="http://www.w3.org/2000/svg">
<g clip-path="url(#clip0)">
<path d="M5.99532 0.667493C1.59873 0.667493 1.42553 4.89342 1.33227 5.33334C0.898925 5.66658 0.551776 6.09896 0.319955 6.59419C0.0881347 7.08943 -0.0215954 7.63307 -2.7352e-05 8.17951C-0.0317466 8.56947 0.0151921 8.96183 0.138 9.33328C0.260808 9.70473 0.45698 10.0477 0.71486 10.3418C0.97274 10.6359 1.28707 10.8751 1.63917 11.0453C1.99127 11.2154 2.37396 11.313 2.7645 11.3323H12.83C13.2602 11.3212 13.6838 11.2245 14.0762 11.048C14.4687 10.8715 14.8221 10.6186 15.116 10.3041C15.4098 9.98965 15.6382 9.6198 15.7879 9.21614C15.9375 8.81247 16.0054 8.38305 15.9876 7.95288C15.9557 7.26707 15.7153 6.60733 15.2987 6.06182C14.8821 5.5163 14.309 5.11101 13.656 4.90009C13.3515 4.2977 12.8795 3.79612 12.297 3.45559C11.7144 3.11506 11.0459 2.95006 10.3719 2.98042C10.2254 2.98042 10.0921 2.98042 9.95226 2.98042C9.56899 2.26813 8.99686 1.67537 8.29877 1.26732C7.60068 0.859263 6.80365 0.651716 5.99532 0.667493Z" fill="#666666"/>
<path d="M2.56541 13.1216C2.4353 12.9914 2.22435 12.9914 2.09423 13.1216C1.96412 13.2518 1.96412 13.4629 2.09423 13.5931L3.72923 15.229C3.85934 15.3592 4.0703 15.3592 4.20041 15.229C4.33052 15.0988 4.33052 14.8878 4.20041 14.7576L2.56541 13.1216Z" fill="#666666"/>
<path d="M4.12316 13.613C4.25328 13.4828 4.25328 13.2717 4.12316 13.1416C3.99305 13.0114 3.7821 13.0114 3.65198 13.1416L2.03583 14.7587C1.90572 14.8889 1.90572 15.0999 2.03583 15.2301C2.16595 15.3603 2.3769 15.3603 2.50701 15.2301L4.12316 13.613Z" fill="#666666"/>
<path d="M5.89317 13.1179C5.76306 12.9877 5.5521 12.9877 5.42199 13.1179C5.29188 13.2481 5.29188 13.4591 5.42199 13.5893L7.05699 15.2253C7.1871 15.3555 7.39806 15.3555 7.52817 15.2253C7.65828 15.0951 7.65828 14.884 7.52817 14.7539L5.89317 13.1179Z" fill="#666666"/>
<path d="M7.4508 13.6167C7.58091 13.4865 7.58091 13.2754 7.4508 13.1452C7.32069 13.015 7.10973 13.015 6.97962 13.1452L5.36347 14.7623C5.23336 14.8925 5.23336 15.1036 5.36347 15.2338C5.49358 15.364 5.70454 15.364 5.83465 15.2338L7.4508 13.6167Z" fill="#666666"/>
<path d="M9.25316 13.122C9.12305 12.9918 8.91209 12.9918 8.78198 13.122C8.65186 13.2522 8.65186 13.4633 8.78198 13.5935L10.417 15.2295C10.5471 15.3597 10.758 15.3597 10.8882 15.2295C11.0183 15.0993 11.0183 14.8882 10.8882 14.758L9.25316 13.122Z" fill="#666666"/>
<path d="M10.8155 13.6173C10.9457 13.4871 10.9457 13.276 10.8155 13.1458C10.6854 13.0156 10.4745 13.0156 10.3444 13.1458L8.72822 14.7629C8.5981 14.8931 8.5981 15.1042 8.72822 15.2344C8.85833 15.3646 9.06928 15.3646 9.1994 15.2344L10.8155 13.6173Z" fill="#666666"/>
<path d="M12.5876 13.125C12.4575 12.9948 12.2466 12.9948 12.1164 13.125C11.9863 13.2552 11.9863 13.4663 12.1164 13.5964L13.7514 15.2324C13.8816 15.3626 14.0925 15.3626 14.2226 15.2324C14.3527 15.1022 14.3527 14.8912 14.2226 14.761L12.5876 13.125Z" fill="#666666"/>
<path d="M14.15 13.621C14.2801 13.4908 14.2801 13.2797 14.15 13.1495C14.0199 13.0193 13.809 13.0193 13.6788 13.1495L12.0627 14.7666C11.9326 14.8968 11.9326 15.1079 12.0627 15.2381C12.1928 15.3683 12.4038 15.3683 12.5339 15.2381L14.15 13.621Z" fill="#666666"/>
</g>
<defs>
<clipPath id="clip0">
<path d="M0 0H16V16H0V0Z" fill="white"/>
</clipPath>
</defs>
</svg>
