<svg width="16" height="16" viewBox="0 0 16 16" fill="none" xmlns="http://www.w3.org/2000/svg">
<g clip-path="url(#clip0)">
<path d="M5.99532 2.03523C6.5747 2.01594 7.14743 2.1666 7.64646 2.46956C8.1455 2.77252 8.55018 3.21525 8.81314 3.7459L9.23947 4.43017L10.0655 4.3549H10.3719C10.8026 4.31854 11.2338 4.41836 11.6077 4.64097C11.9816 4.86357 12.2803 5.19831 12.4636 5.60027L12.6968 6.05189L13.1631 6.23664C13.5715 6.36096 13.9331 6.61037 14.1998 6.95152C14.4664 7.29268 14.6254 7.70932 14.6553 8.14575C14.6715 8.40884 14.6363 8.6726 14.5518 8.92152C14.4673 9.17044 14.3352 9.39949 14.1633 9.59521C13.9914 9.79093 13.7831 9.94937 13.5507 10.0612C13.3183 10.173 13.0665 10.236 12.81 10.2465H2.7645C2.39145 10.2465 1.33227 9.92485 1.33227 8.3784C1.31317 8.02366 1.37839 7.66948 1.5223 7.34641C1.66621 7.02334 1.88449 6.7411 2.1583 6.52403L2.5913 6.20243L2.66457 5.66185C2.66457 5.6208 2.66457 5.55237 2.66457 5.47026C3.03762 2.36368 4.74296 2.03523 5.99532 2.03523ZM5.99532 0.666692C1.59873 0.666692 1.42553 5.00495 1.33227 5.45657C0.898925 5.79867 0.551776 6.24254 0.319955 6.75094C0.0881347 7.25934 -0.0215954 7.81743 -2.7352e-05 8.3784C-0.0317466 8.77873 0.0151921 9.18152 0.138 9.56284C0.260808 9.94417 0.45698 10.2962 0.71486 10.5982C0.97274 10.9001 1.28707 11.1457 1.63917 11.3203C1.99127 11.495 2.37396 11.5952 2.7645 11.615H12.83C13.2602 11.6036 13.6838 11.5044 14.0762 11.3232C14.4687 11.142 14.8221 10.8824 15.116 10.5595C15.4098 10.2367 15.6382 9.85698 15.7879 9.44258C15.9375 9.02818 16.0054 8.58735 15.9876 8.14575C15.9557 7.4417 15.7153 6.76442 15.2987 6.20441C14.8821 5.6444 14.309 5.22833 13.656 5.0118C13.3515 4.3934 12.8795 3.87848 12.297 3.5289C11.7144 3.17932 11.0459 3.00994 10.3719 3.0411C10.2254 3.0411 10.0921 3.0411 9.95226 3.0411C9.56899 2.30988 8.99686 1.70136 8.29877 1.28246C7.60068 0.863559 6.80365 0.650495 5.99532 0.666692Z" fill="#666666"/>
<path d="M2.5652 13.4519C2.43513 13.3183 2.22424 13.3183 2.09416 13.4519C1.96409 13.5855 1.96409 13.8022 2.09416 13.9358L3.72867 15.6147C3.85874 15.7483 4.06963 15.7483 4.19971 15.6147C4.32978 15.4811 4.32978 15.2645 4.19971 15.1309L2.5652 13.4519Z" fill="#666666"/>
<path d="M4.12309 13.9561C4.25317 13.8225 4.25317 13.6059 4.12309 13.4723C3.99302 13.3387 3.78213 13.3387 3.65205 13.4723L2.03639 15.1319C1.90631 15.2655 1.90631 15.4821 2.03639 15.6157C2.16646 15.7493 2.37735 15.7493 2.50743 15.6157L4.12309 13.9561Z" fill="#666666"/>
<path d="M5.89296 13.4481C5.76289 13.3145 5.55199 13.3145 5.42192 13.4481C5.29185 13.5817 5.29185 13.7984 5.42192 13.932L7.05643 15.6109C7.1865 15.7446 7.39739 15.7446 7.52746 15.6109C7.65754 15.4773 7.65754 15.2607 7.52746 15.1271L5.89296 13.4481Z" fill="#666666"/>
<path d="M7.45085 13.9599C7.58093 13.8263 7.58093 13.6097 7.45085 13.4761C7.32078 13.3424 7.10989 13.3424 6.97981 13.4761L5.36415 15.1357C5.23408 15.2693 5.23407 15.4859 5.36415 15.6195C5.49422 15.7531 5.70511 15.7531 5.83519 15.6195L7.45085 13.9599Z" fill="#666666"/>
<path d="M9.25295 13.4523C9.12287 13.3187 8.91198 13.3187 8.78191 13.4523C8.65183 13.586 8.65183 13.8026 8.78191 13.9362L10.4164 15.6152C10.5465 15.7488 10.7574 15.7488 10.8875 15.6152C11.0175 15.4816 11.0175 15.2649 10.8875 15.1313L9.25295 13.4523Z" fill="#666666"/>
<path d="M10.8155 13.9605C10.9455 13.8269 10.9455 13.6103 10.8155 13.4767C10.6854 13.3431 10.4745 13.3431 10.3444 13.4767L8.72877 15.1363C8.5987 15.2699 8.5987 15.4865 8.72877 15.6201C8.85885 15.7537 9.06974 15.7537 9.19981 15.6201L10.8155 13.9605Z" fill="#666666"/>
<path d="M12.5874 13.4554C12.4573 13.3218 12.2465 13.3218 12.1164 13.4554C11.9863 13.589 11.9863 13.8056 12.1164 13.9393L13.7509 15.6182C13.881 15.7518 14.0918 15.7518 14.2219 15.6182C14.352 15.4846 14.352 15.268 14.2219 15.1344L12.5874 13.4554Z" fill="#666666"/>
<path d="M14.1499 13.9643C14.28 13.8307 14.28 13.6141 14.1499 13.4805C14.0199 13.3468 13.809 13.3468 13.6789 13.4805L12.0632 15.1401C11.9332 15.2737 11.9332 15.4903 12.0632 15.6239C12.1933 15.7575 12.4042 15.7575 12.5343 15.6239L14.1499 13.9643Z" fill="#666666"/>
</g>
<defs>
<clipPath id="clip0">
<path d="M0 0H16V16H0V0Z" fill="white"/>
</clipPath>
</defs>
</svg>
