<svg width="24" height="24" viewBox="0 0 24 24" fill="none" xmlns="http://www.w3.org/2000/svg">
<path d="M20 4V16H4V4H20ZM22 2H2V18H22V2Z" fill="white"/>
<path d="M18 6.5H6V8.5H18V6.5Z" fill="white"/>
<path d="M8 20H4C4 20.5304 4.21071 21.0391 4.58579 21.4142C4.96086 21.7893 5.46957 22 6 22C6.53043 22 7.03914 21.7893 7.41421 21.4142C7.78929 21.0391 8 20.5304 8 20Z" fill="white"/>
<path d="M20 20H16C16 20.5304 16.2107 21.0391 16.5858 21.4142C16.9609 21.7893 17.4696 22 18 22C18.5304 22 19.0391 21.7893 19.4142 21.4142C19.7893 21.0391 20 20.5304 20 20Z" fill="white"/>
</svg>
