<svg width="16" height="16" viewBox="0 0 16 16" fill="none" xmlns="http://www.w3.org/2000/svg">
<g clip-path="url(#clip0)">
<path d="M0.968117 6.24391L0.00012207 4.70669C0.136121 4.61862 3.31211 2.65707 6.50409 3.33761C9.69607 4.01815 10.5921 3.33761 10.7201 3.21751C10.7893 3.11941 10.8309 3.00456 10.8408 2.88489C10.8506 2.76521 10.8283 2.64509 10.7761 2.53698C10.7304 2.39924 10.6541 2.27366 10.5529 2.16966C10.4518 2.06566 10.3284 1.98595 10.1921 1.9365C9.89427 1.83875 9.57913 1.80534 9.26748 1.83846C8.95582 1.87158 8.65473 1.97049 8.38408 2.12865L7.58408 0.527388C8.08383 0.249907 8.63662 0.0814756 9.20609 0.0331774C9.77556 -0.0151209 10.3488 0.0578082 10.8881 0.247166C11.2626 0.400135 11.5996 0.632503 11.8758 0.92828C12.152 1.22406 12.3609 1.57622 12.4881 1.96052C12.6469 2.37283 12.6913 2.82045 12.6167 3.25597C12.542 3.69149 12.3511 4.09871 12.0641 4.43448C11.0881 5.52334 9.08808 5.75552 6.11209 5.11502C3.6401 4.5946 0.992117 6.2279 0.968117 6.24391Z" fill="#666666"/>
<path d="M12.5921 13.2174C10.4561 13.2174 9.18407 12.1045 9.18407 10.231H11.0081C11.0081 10.6073 11.0081 11.4 12.6081 11.4C13.0181 11.3579 13.4011 11.1757 13.6925 10.884C13.984 10.5924 14.166 10.2091 14.208 9.79871C14.208 8.99807 13.7441 8.19744 13.0401 8.19744C12.7512 8.20641 12.4642 8.24668 12.1841 8.31754C11.2161 8.5257 9.88807 8.80592 6.58409 8.31754C4.1841 7.99728 1.10412 10.0629 1.07212 10.0789L0.00012207 8.6458C0.144121 8.54171 3.6641 6.13981 6.79209 6.57216C9.78407 6.98848 10.9361 6.74829 11.7761 6.57216C12.1796 6.47275 12.5926 6.41639 13.0081 6.40402C14.856 6.40402 16 8.17342 16 9.81472C15.9554 10.7041 15.5818 11.545 14.9519 12.1739C14.3219 12.8029 13.4808 13.1748 12.5921 13.2174Z" fill="#666666"/>
<path d="M5.51206 16.0116C5.16704 16.038 4.8204 15.9895 4.4959 15.8692C4.17139 15.749 3.8767 15.56 3.63203 15.3151C3.38735 15.0702 3.19848 14.7753 3.07835 14.4506C2.95822 14.1258 2.90969 13.7789 2.93607 13.4336H4.80006C4.80006 13.898 4.92806 14.1862 5.55206 14.1862C5.72618 14.1757 5.89493 14.1219 6.04301 14.0296C6.19109 13.9373 6.31382 13.8095 6.40005 13.6578C6.46188 13.4241 6.46115 13.1783 6.39796 12.945C6.33477 12.7117 6.21133 12.4991 6.04006 12.3287C5.40006 11.488 2.68807 12.4168 0.968082 13.3936L0.0640869 11.7923C0.976082 11.2879 5.60006 8.80593 7.48805 11.2078C7.88056 11.6306 8.14115 12.1589 8.23779 12.7278C8.33443 13.2967 8.26292 13.8815 8.03204 14.4104C7.80043 14.8839 7.44246 15.2841 6.99772 15.5667C6.55298 15.8493 6.0388 16.0033 5.51206 16.0116Z" fill="#666666"/>
</g>
<defs>
<clipPath id="clip0">
<path d="M0 0H16V16H0V0Z" fill="white"/>
</clipPath>
</defs>
</svg>
