<svg width="24" height="24" viewBox="0 0 24 24" fill="none" xmlns="http://www.w3.org/2000/svg">
<path d="M13.42 4L14.31 5.25L14.9 6H20V16H4V6H9L9.59 5.23L10.49 4H13.42ZM14.42 2H9.42L8 4H2V18H22V4H15.94L14.45 2H14.42Z" fill="#B25538"/>
<path d="M8 20H4C4 20.5304 4.21071 21.0391 4.58579 21.4142C4.96086 21.7893 5.46957 22 6 22C6.53043 22 7.03914 21.7893 7.41421 21.4142C7.78929 21.0391 8 20.5304 8 20Z" fill="#B25538"/>
<path d="M20 20H16C16 20.5304 16.2107 21.0391 16.5858 21.4142C16.9609 21.7893 17.4696 22 18 22C18.5304 22 19.0391 21.7893 19.4142 21.4142C19.7893 21.0391 20 20.5304 20 20Z" fill="#B25538"/>
</svg>
