<svg xmlns="http://www.w3.org/2000/svg" viewBox="0 0 20 20.11"><defs><style>.cls-1{fill:gray;}.cls-2{fill:#283941;}</style></defs><g id="Layer_2" data-name="Layer 2"><g id="Layer_1-2" data-name="Layer 1"><path class="cls-1" d="M15.3,16.33A10,10,0,0,1,7.57,0a10,10,0,1,0,11.3,15.67A10.06,10.06,0,0,1,15.3,16.33Z"/><path class="cls-2" d="M7.5,6.77c-5.5,0-5.71,5.28-5.8,5.83A4.28,4.28,0,0,0,0,16.16,3.66,3.66,0,0,0,3.45,20.1h12.6A4.06,4.06,0,0,0,20,15.88a4.2,4.2,0,0,0-2.92-3.81A4.38,4.38,0,0,0,13,9.66a4.41,4.41,0,0,0-.52,0A5.49,5.49,0,0,0,7.5,6.77Z"/></g></g></svg>