<svg xmlns="http://www.w3.org/2000/svg" viewBox="0 0 24 24.23"><defs><style>.cls-1{fill:#283941;}.cls-2{fill:gray;}</style></defs><g id="Layer_2" data-name="Layer 2"><g id="Layer_1-2" data-name="Layer 1"><path class="cls-1" d="M9,0C2.4,0,2.14,6.34,2,7a5.13,5.13,0,0,0-2,4.27A4.38,4.38,0,0,0,4.15,16H19.26A4.87,4.87,0,0,0,24,10.93a5.06,5.06,0,0,0-3.5-4.58,5.26,5.26,0,0,0-4.93-2.88c-.22,0-.42,0-.63,0A6.6,6.6,0,0,0,9,0Z"/><path class="cls-2" d="M12,20.89h1.64c.41,0,.82,0,1.23,0,.19,0-.15,0,0,0l.18,0,.18.06c.12,0,0,0-.06,0a.38.38,0,0,0,.13.06l.1.07c.12.07-.06-.06,0,0l.1.09s.11.14,0,0,.11.16.1.17-.05-.16,0-.08a.14.14,0,0,0,0,.07c0,.06,0,.13,0,.19s0-.13,0,0,0,.14,0,.21,0,.26,0,.1c0,.07,0,.14,0,.21l0,.08s.08-.14,0,0a1,1,0,0,0-.08.14c-.06.11.09-.09,0,0a1.59,1.59,0,0,0-.13.13c-.1.09.12-.07,0,0l-.13.07-.05,0c-.08,0,0,0,.07,0a.5.5,0,0,0-.13,0l-.2.05-.09,0h.07c-.07.06-.26,0-.34,0s.16,0,.09,0l-.09,0h-.06c-.07,0,.13.07.08,0l-.12-.07s.08.07.09.07l0,0a.76.76,0,0,0-.09-.09c.06,0,.11.16,0,0l-.06-.1c-.06-.11,0,0,0,.07s-.05-.14-.06-.2,0-.24,0-.06,0,0,0-.06a.76.76,0,0,0-.75-.75.77.77,0,0,0-.75.75,2,2,0,0,0,1,1.73,2.34,2.34,0,0,0,1.82,0A2.2,2.2,0,0,0,17,22.55a2.57,2.57,0,0,0-.18-2.05,2.27,2.27,0,0,0-1.22-1,3.78,3.78,0,0,0-1.34-.14H12a.76.76,0,0,0-.75.75.77.77,0,0,0,.75.75Z"/><path class="cls-2" d="M10.28,18.65h7.78c.87,0,1.75,0,2.62,0h.1c.2,0,0,0,.13,0a2.1,2.1,0,0,1,.84.32,1.83,1.83,0,0,1,.4,2.36,1.75,1.75,0,0,1-2.2.55,1,1,0,0,1-.32-.6c-.05-.16-.05-.27,0-.19a.57.57,0,0,1,0-.13.75.75,0,0,0-1.5,0,3,3,0,0,0,.46,1.55,2.58,2.58,0,0,0,2.79,1,3,3,0,0,0,2.48-2.34,3.29,3.29,0,0,0-1.12-3.35,4.41,4.41,0,0,0-2.76-.66H10.28a.75.75,0,0,0,0,1.5Z"/><path class="cls-2" d="M7.37,19.66A.38.38,0,0,0,7.75,19l-.58-.33.57-.33a.39.39,0,0,0,.14-.52.4.4,0,0,0-.53-.14L6.79,18v-.65a.38.38,0,1,0-.76,0V18l-.58-.34a.39.39,0,0,0-.52.14.38.38,0,0,0,.14.52l.58.34L5.09,19a.38.38,0,1,0,.38.66L6,19.33V20a.38.38,0,0,0,.76,0v-.65Z"/><path class="cls-2" d="M2.88,19.66A.38.38,0,0,0,3.26,19l-.58-.33.57-.33a.38.38,0,0,0-.38-.66L2.3,18v-.65a.38.38,0,0,0-.76,0V18L1,17.67a.39.39,0,0,0-.52.14.38.38,0,0,0,.14.52l.58.34L.6,19a.38.38,0,0,0,.38.66l.56-.32V20a.38.38,0,0,0,.76,0v-.65Z"/><path class="cls-2" d="M10.11,22.87l-.58-.33.56-.32a.37.37,0,0,0,.14-.52.37.37,0,0,0-.52-.14l-.56.32v-.65a.38.38,0,0,0-.76,0v.65l-.58-.33a.38.38,0,0,0-.52.14.39.39,0,0,0,.14.52l.58.33-.56.33a.37.37,0,0,0-.14.52.39.39,0,0,0,.52.14l.56-.33v.65a.38.38,0,0,0,.76,0V23.2l.58.33a.38.38,0,0,0,.52-.13A.4.4,0,0,0,10.11,22.87Z"/><path class="cls-2" d="M5.33,22.87l-.58-.33.57-.32a.39.39,0,0,0,.14-.52.38.38,0,0,0-.53-.14l-.56.32v-.65a.38.38,0,0,0-.76,0v.65L3,21.55a.38.38,0,0,0-.52.14.39.39,0,0,0,.14.52l.58.33-.56.33a.37.37,0,0,0-.14.52.39.39,0,0,0,.52.14l.56-.33v.65a.38.38,0,0,0,.76,0V23.2l.58.33a.38.38,0,0,0,.52-.13A.4.4,0,0,0,5.33,22.87Z"/></g></g></svg>