<svg xmlns="http://www.w3.org/2000/svg" viewBox="0 0 20.6 20.75"><defs><style>.cls-1{fill:gray;}.cls-2{fill:#b25538;}.cls-3{fill:#283941;}.cls-4{fill:#b3b3b3;}.cls-5{fill:#95bccf;}</style></defs><g id="Layer_2" data-name="Layer 2"><g id="Layer_1-2" data-name="Layer 1"><path class="cls-1" d="M12.54,9.23,10,7.77l2.45-1.42a1.67,1.67,0,0,0-1.67-2.89L8.36,4.88V2A1.67,1.67,0,0,0,5,2V4.88L2.5,3.43A1.67,1.67,0,0,0,.22,4h0A1.68,1.68,0,0,0,.83,6.32L3.35,7.77.89,9.19a1.67,1.67,0,0,0,1.67,2.89L5,10.66V13.5a1.67,1.67,0,1,0,3.34,0V10.66l2.52,1.46a1.67,1.67,0,1,0,1.66-2.89Z"/><circle class="cls-2" cx="17.01" cy="17.17" r="3.21"/><path class="cls-3" d="M18.6,14.4V2a1.59,1.59,0,0,0-3.17,0V14.4a3.21,3.21,0,1,0,3.17,0Z"/><path class="cls-4" d="M17,20.75a3.57,3.57,0,0,1-2-6.56V2A2,2,0,1,1,19,2V14.19A3.57,3.57,0,0,1,17,20.75Zm0-20A1.21,1.21,0,0,0,15.81,2V14.61l-.19.11a2.84,2.84,0,1,0,2.79,0l-.19-.11V2A1.21,1.21,0,0,0,17,.75Z"/><path class="cls-5" d="M17.64,15.09v-2a.63.63,0,0,0-1.25,0v2a2.19,2.19,0,1,0,1.25,0Z"/></g></g></svg>