<svg xmlns="http://www.w3.org/2000/svg" viewBox="0 0 22.02 19.33"><defs><style>.cls-1{fill:gray;}</style></defs><g id="Layer_2" data-name="Layer 2"><g id="Layer_1-2" data-name="Layer 1"><circle class="cls-1" cx="16.78" cy="3.2" r="0.54"/><circle class="cls-1" cx="20.55" cy="8.69" r="0.54"/><circle class="cls-1" cx="21.48" cy="11.08" r="0.54"/><circle class="cls-1" cx="19.19" cy="10.81" r="0.54"/><circle class="cls-1" cx="18.17" cy="8.66" r="0.54"/><circle class="cls-1" cx="10.83" cy="11.42" r="0.54"/><circle class="cls-1" cx="15.69" cy="8.21" r="0.54"/><circle class="cls-1" cx="17.74" cy="6" r="0.54"/><circle class="cls-1" cx="12.64" cy="8.96" r="0.54"/><circle class="cls-1" cx="14.18" cy="11.42" r="0.54"/><circle class="cls-1" cx="12.09" cy="13.8" r="0.54"/><circle class="cls-1" cx="15.06" cy="14.34" r="0.54"/><circle class="cls-1" cx="9.79" cy="8.39" r="0.54"/><circle class="cls-1" cx="7.51" cy="5.58" r="0.54"/><circle class="cls-1" cx="14.73" cy="5.46" r="0.54"/><circle class="cls-1" cx="11.48" cy="6" r="0.54"/><circle class="cls-1" cx="20.07" cy="13.23" r="0.54"/><circle class="cls-1" cx="17.73" cy="12.76" r="0.54"/><circle class="cls-1" cx="16.86" cy="10.39" r="0.54"/><circle class="cls-1" cx="18.84" cy="17.51" r="0.54"/><circle class="cls-1" cx="7.51" cy="10.79" r="0.54"/><circle class="cls-1" cx="13.08" cy="2.66" r="0.54"/><circle class="cls-1" cx="20.79" cy="15.68" r="0.54"/><circle class="cls-1" cx="9.53" cy="2.93" r="0.54"/><path class="cls-1" d="M14.17,16.33A10,10,0,0,1,6.43,0,10,10,0,1,0,17.74,15.67,10.06,10.06,0,0,1,14.17,16.33Z"/></g></g></svg>