<svg xmlns="http://www.w3.org/2000/svg" viewBox="0 0 20 27.38"><defs><style>.cls-1{fill:gray;}</style></defs><g id="Layer_2" data-name="Layer 2"><g id="Layer_1-2" data-name="Layer 1"><path class="cls-1" d="M19.25,20.88H2.75a.75.75,0,0,0,0,1.5h16.5a.75.75,0,0,0,0-1.5Z"/><path class="cls-1" d="M19.25,25.88H2.75a.75.75,0,0,0,0,1.5h16.5a.75.75,0,0,0,0-1.5Z"/><path class="cls-1" d="M18,24.13a.76.76,0,0,0-.75-.75H.75a.75.75,0,0,0,0,1.5h16.5A.76.76,0,0,0,18,24.13Z"/><path class="cls-1" d="M15.3,16.33A10,10,0,0,1,7.57,0a10,10,0,1,0,11.3,15.67A10.06,10.06,0,0,1,15.3,16.33Z"/></g></g></svg>