<svg xmlns="http://www.w3.org/2000/svg" viewBox="0 0 20.73 20.75"><defs><style>.cls-1{fill:gray;}.cls-2{fill:#b25538;}.cls-3{fill:#283941;}.cls-4{fill:#b3b3b3;}</style></defs><g id="Layer_2" data-name="Layer 2"><g id="Layer_1-2" data-name="Layer 1"><path class="cls-1" d="M17.16,17A10,10,0,0,1,9.42.71,10,10,0,1,0,20.73,16.38,10.06,10.06,0,0,1,17.16,17Z"/><circle class="cls-2" cx="3.57" cy="17.17" r="3.21"/><path class="cls-3" d="M5.17,14.39V2A1.59,1.59,0,1,0,2,2V14.39a3.21,3.21,0,1,0,3.17,0Z"/><path class="cls-4" d="M3.58,20.75a3.58,3.58,0,0,1-2-6.57V2A2,2,0,0,1,5.54,2V14.18a3.58,3.58,0,0,1-2,6.57Zm0-20A1.21,1.21,0,0,0,2.37,2V14.61l-.18.11a2.83,2.83,0,1,0,2.79,0l-.19-.11V2A1.21,1.21,0,0,0,3.58.75Z"/><path class="cls-2" d="M4.21,15.09v-13A.63.63,0,0,0,3,2.06v13a2.19,2.19,0,1,0,1.25,0Z"/></g></g></svg>