<svg xmlns="http://www.w3.org/2000/svg" viewBox="0 0 24 22"><defs><style>.cls-1{fill:#283941;}.cls-2{fill:gray;}</style></defs><g id="Layer_2" data-name="Layer 2"><g id="Layer_1-2" data-name="Layer 1"><path class="cls-1" d="M9,0C2.4,0,2.14,6.34,2,7a5.13,5.13,0,0,0-2,4.27A4.38,4.38,0,0,0,4.15,16H19.26A4.87,4.87,0,0,0,24,10.93a5.06,5.06,0,0,0-3.5-4.58,5.26,5.26,0,0,0-4.93-2.88c-.22,0-.42,0-.63,0A6.6,6.6,0,0,0,9,0Z"/><path class="cls-2" d="M10.54,19.28l-.85.08.36-.78a.5.5,0,1,0-.91-.41l-.35.77-.51-.71a.5.5,0,1,0-.81.57l.5.72-.85.07a.51.51,0,0,0-.45.55.5.5,0,0,0,.54.45l.85-.08-.35.77a.5.5,0,1,0,.9.42L9,20.93l.5.71a.5.5,0,0,0,.7.12.51.51,0,0,0,.12-.7l-.5-.71.84-.08a.49.49,0,0,0,.45-.54A.49.49,0,0,0,10.54,19.28Z"/><path class="cls-2" d="M20.56,19.28l-.85.08.35-.78a.49.49,0,0,0-.24-.66.5.5,0,0,0-.66.25l-.36.77-.5-.71a.5.5,0,0,0-.82.57l.5.72-.84.07a.5.5,0,0,0,.09,1l.85-.08-.36.77A.52.52,0,0,0,18,22a.5.5,0,0,0,.66-.25l.36-.77.5.71a.5.5,0,0,0,.7.12.52.52,0,0,0,.12-.7l-.51-.71.85-.08a.49.49,0,0,0,.45-.54A.5.5,0,0,0,20.56,19.28Z"/><path class="cls-2" d="M4.92,18a1,1,0,0,0-1.33.48l-1,2.14a1,1,0,0,0,1.82.84l1-2.13A1,1,0,0,0,4.92,18Z"/><path class="cls-2" d="M14.92,18a1,1,0,0,0-1.33.48l-1,2.14a1,1,0,1,0,1.81.84l1-2.13A1,1,0,0,0,14.92,18Z"/></g></g></svg>