<svg xmlns="http://www.w3.org/2000/svg" viewBox="0 0 22.9 19.97"><defs><style>.cls-1{fill:gray;}.cls-2{fill:#283941;}</style></defs><g id="Layer_2" data-name="Layer 2"><g id="Layer_1-2" data-name="Layer 1"><path class="cls-1" d="M19.33,16.33A10,10,0,0,1,11.59,0,10,10,0,1,0,22.9,15.67,10.06,10.06,0,0,1,19.33,16.33Z"/><path class="cls-2" d="M6.4,8.6c-4.69,0-4.88,4.5-4.95,5a3.64,3.64,0,0,0-1.45,3A3.11,3.11,0,0,0,3,20H13.69a3.45,3.45,0,0,0,3.37-3.6,3.57,3.57,0,0,0-2.49-3.26,3.73,3.73,0,0,0-3.5-2l-.45,0A4.7,4.7,0,0,0,6.4,8.6Z"/></g></g></svg>