<svg xmlns="http://www.w3.org/2000/svg" viewBox="0 0 24 24.76"><defs><style>.cls-1{fill:#283941;}.cls-2{fill:#c9ac68;}</style></defs><g id="Layer_2" data-name="Layer 2"><g id="Layer_2-2" data-name="Layer 2"><path class="cls-1" d="M9,0C2.4,0,2.14,6.34,2,7a5.13,5.13,0,0,0-2,4.27A4.38,4.38,0,0,0,4.15,16H19.26A4.87,4.87,0,0,0,24,10.93a5.06,5.06,0,0,0-3.5-4.58,5.26,5.26,0,0,0-4.93-2.88c-.22,0-.42,0-.63,0A6.6,6.6,0,0,0,9,0Z"/><polygon class="cls-2" points="15.31 11.8 9.96 11.8 7.92 18.19 10.21 18.17 8.81 24.76 16.08 14.35 14.31 14.33 15.31 11.8 15.31 11.8"/></g></g></svg>