<svg xmlns="http://www.w3.org/2000/svg" viewBox="0 0 24.47 25.87"><defs><style>.cls-1{fill:gray;}.cls-2{fill:#283941;}</style></defs><g id="Layer_2" data-name="Layer 2"><g id="Layer_1-2" data-name="Layer 1"><path class="cls-1" d="M14.17,16.33A10,10,0,0,1,6.43,0,10,10,0,1,0,17.74,15.67,10.06,10.06,0,0,1,14.17,16.33Z"/><path class="cls-2" d="M7,8.21c-4.78,0-5,4.6-5,5.08A3.7,3.7,0,0,0,.51,16.38a3.18,3.18,0,0,0,3,3.43h11a3.53,3.53,0,0,0,3.44-3.68,3.65,3.65,0,0,0-2.54-3.32,3.79,3.79,0,0,0-3.57-2.09l-.46,0A4.79,4.79,0,0,0,7,8.21Z"/><path class="cls-2" d="M1.72,22.12H8.59c2.43,0,4.89-.1,7.32,0a1.3,1.3,0,0,1,.95.41,1.26,1.26,0,0,1-.11,1.55c-.28.25-1.05.48-1.32.12-.55-.78-1.85,0-1.29.75a2.37,2.37,0,0,0,3.12.58,2.69,2.69,0,0,0,1.15-3.25,2.75,2.75,0,0,0-2.8-1.66H1.72a.75.75,0,0,0,0,1.5Z"/><path class="cls-2" d="M6.47,19.82H17.72c1.19,0,2.4.06,3.59,0a3.41,3.41,0,0,0,2.42-1.1,3.41,3.41,0,0,0,.07-4.15,3.27,3.27,0,0,0-4-.8A2.68,2.68,0,0,0,18.65,16a.75.75,0,0,0,1.5,0,1.16,1.16,0,0,1,.57-1c1.24-.55,2.34.75,2.23,1.88s-1.16,1.48-2.13,1.48H6.47a.75.75,0,0,0,0,1.5Z"/></g></g></svg>