<svg xmlns="http://www.w3.org/2000/svg" viewBox="0 0 21.98 22.56"><defs><style>.cls-1{fill:gray;}.cls-2{fill:#283941;}</style></defs><g id="Layer_2" data-name="Layer 2"><g id="Layer_1-2" data-name="Layer 1"><path class="cls-1" d="M15.56,16.33A10,10,0,0,1,7.82,0a10,10,0,1,0,11.3,15.67A10,10,0,0,1,15.56,16.33Z"/><path class="cls-2" d="M3.72,6.58A2.86,2.86,0,0,0,.84,9.47,2.11,2.11,0,0,0,0,11.23a1.81,1.81,0,0,0,1.71,1.95H8a2,2,0,0,0,2-2.09A2.07,2.07,0,0,0,8.47,9.2,2.17,2.17,0,0,0,6.43,8H6.17A2.71,2.71,0,0,0,3.72,6.58Z"/><path class="cls-2" d="M11.22,2.47A1.83,1.83,0,0,0,9.38,4.32a1.37,1.37,0,0,0-.53,1.12A1.16,1.16,0,0,0,9.94,6.69h4a1.28,1.28,0,0,0,1.25-1.34,1.33,1.33,0,0,0-.92-1.2A1.39,1.39,0,0,0,13,3.39h-.17a1.73,1.73,0,0,0-1.56-.93Z"/><path class="cls-2" d="M5.71,19.39H13c-.14,0-.09,0,0,0s.34.12.23.06c.22.11.27.14.36.31a1.16,1.16,0,0,1,0,.88.59.59,0,0,1-.44.34,2,2,0,0,1-.49.07c-.11,0,.08,0-.08,0,.12.05,0,0-.07,0s0,0,0,0l0,0-.06-.09s-.06-.14,0,0a.58.58,0,0,1-.05-.14l0-.13c0-.13,0,.18,0,.06a.28.28,0,0,1,0-.09.75.75,0,0,0-1.5,0,2.06,2.06,0,0,0,.37,1.18,2,2,0,0,0,2.17.67,2.2,2.2,0,0,0,1.72-2,2.3,2.3,0,0,0-1-2.23,3.47,3.47,0,0,0-2-.39H5.71a.75.75,0,0,0,0,1.5Z"/><path class="cls-2" d="M4,17.16H18c.8,0,1.64-.09,2.18.63a1.76,1.76,0,0,1-1.65,2.79,1.07,1.07,0,0,1-.85-1.09.75.75,0,0,0-1.5,0c0,2.32,2.47,3.21,4.35,2.12a3.31,3.31,0,0,0,1.26-3.95,3.09,3.09,0,0,0-2.41-1.93,17.85,17.85,0,0,0-3.27-.07H4a.75.75,0,0,0,0,1.5Z"/></g></g></svg>