<svg xmlns="http://www.w3.org/2000/svg" viewBox="0 0 18.72 19.76"><defs><style>.cls-1{fill:gray;}.cls-2{fill:#283941;}</style></defs><g id="Layer_2" data-name="Layer 2"><g id="Layer_1-2" data-name="Layer 1"><path class="cls-1" d="M14.77,16.33A10,10,0,0,1,7,0a10,10,0,1,0,11.3,15.67A10,10,0,0,1,14.77,16.33Z"/><path class="cls-2" d="M2.45,12.81H8.58a5.47,5.47,0,0,0,1.85-.16,2.21,2.21,0,0,0,1.46-1.75,2.32,2.32,0,0,0-1.11-2.46,2.21,2.21,0,0,0-2.57.21,2.06,2.06,0,0,0-.56,1.42.75.75,0,0,0,1.5,0V10c0-.15-.06.19,0,0s0-.16.07-.23c-.08.22.11-.21,0,0,0,0,.16-.16,0-.05l.11-.07c-.16,0,.1,0,0,0h.17a1.36,1.36,0,0,1,.39.08.68.68,0,0,1,.21.1.85.85,0,0,1,.26.78.63.63,0,0,1-.24.52c.09-.07,0,0-.06,0a.75.75,0,0,1-.15.09c.13-.07-.12,0-.17,0s-.28,0-.14,0,0,0-.06,0H2.45a.75.75,0,0,0,0,1.5Z"/><path class="cls-2" d="M2.45,17.3c2.78,0,5.58.1,8.35,0h.1c-.24,0,0,0,.12,0a.35.35,0,0,1,.22.18.58.58,0,0,1-.09.63,1,1,0,0,1-.38.11c-.13,0-.15-.08-.08,0-.55-.78-1.85,0-1.3.76a1.81,1.81,0,0,0,2.35.5,2,2,0,0,0-1-3.74c-2,0-4,0-6.06,0H2.45a.75.75,0,0,0,0,1.5Z"/><path class="cls-2" d="M.72,15H12c1.19,0,2.4.06,3.59,0A3.41,3.41,0,0,0,18,13.94a3.41,3.41,0,0,0,.07-4.15A3.27,3.27,0,0,0,14,9a2.68,2.68,0,0,0-1.12,2.22.75.75,0,0,0,1.5,0,1.16,1.16,0,0,1,.57-1c1.24-.55,2.34.75,2.23,1.88S16,13.54,15.08,13.54H.72a.75.75,0,0,0,0,1.5Z"/></g></g></svg>