<svg xmlns="http://www.w3.org/2000/svg" viewBox="0 0 27.53 21.29"><defs><style>.cls-1{fill:gray;}.cls-2{fill:#283941;}</style></defs><g id="Layer_2" data-name="Layer 2"><g id="Layer_1-2" data-name="Layer 1"><path class="cls-1" d="M10,11.51A7,7,0,0,1,4.54,0a7,7,0,1,0,8,11A7,7,0,0,1,10,11.51Z"/><path class="cls-2" d="M7.5,1.89C2,1.89,1.79,7.17,1.7,7.72A4.26,4.26,0,0,0,0,11.28a3.65,3.65,0,0,0,3.45,3.93h12.6A4,4,0,0,0,20,11a4.2,4.2,0,0,0-2.92-3.82A4.37,4.37,0,0,0,13,4.78l-.52,0A5.5,5.5,0,0,0,7.5,1.89Z"/><path class="cls-2" d="M1.56,17.55c5.35,0,10.7-.09,16.05,0a1.46,1.46,0,0,1,.77.13,1.14,1.14,0,0,1,.5,1.43c-.17.47-1.17,1.06-1.57.51-.56-.77-1.86,0-1.29.76a2.43,2.43,0,0,0,3.36.43,2.73,2.73,0,0,0,.71-3.53c-.65-1.1-1.84-1.23-3-1.23H1.56a.75.75,0,0,0,0,1.5Z"/><path class="cls-2" d="M9.54,15.29H20.78c1.19,0,2.4.06,3.59,0a3.48,3.48,0,0,0,2.43-1.09A3.44,3.44,0,0,0,26.86,10a3.29,3.29,0,0,0-4-.8,2.73,2.73,0,0,0-1.12,2.23.75.75,0,0,0,1.5,0,1.23,1.23,0,0,1,.57-1c1.25-.54,2.35.75,2.23,1.88s-1.15,1.49-2.12,1.49H9.54a.75.75,0,0,0,0,1.5Z"/></g></g></svg>