<svg xmlns="http://www.w3.org/2000/svg" viewBox="0 0 20 16.66"><defs><style>.cls-1{fill:#c9ac68;}.cls-2{fill:#507282;}</style></defs><g id="Layer_2" data-name="Layer 2"><g id="Layer_1-2" data-name="Layer 1"><path class="cls-1" d="M20,5.34a.8.8,0,0,0-1-.53l-1.55.49a.81.81,0,0,0-.53,1,.82.82,0,0,0,1,.53l1.55-.49A.81.81,0,0,0,20,5.34Z"/><path class="cls-1" d="M6.54,8.73,5,9.22a.81.81,0,0,0-.53,1,.8.8,0,0,0,1,.53L7,10.28a.82.82,0,0,0,.53-1A.83.83,0,0,0,6.54,8.73Z"/><path class="cls-1" d="M9.72,2.61a.81.81,0,0,0,1,.53.83.83,0,0,0,.53-1L10.78.57a.81.81,0,0,0-1-.53.8.8,0,0,0-.53,1Z"/><path class="cls-1" d="M14.7,13a.81.81,0,1,0-1.55.49L13.64,15a.81.81,0,0,0,1,.53.8.8,0,0,0,.53-1Z"/><path class="cls-1" d="M16,.57a.82.82,0,0,0-1.1.35l-.75,1.44a.82.82,0,0,0,.35,1.1.8.8,0,0,0,1.09-.35l.75-1.44A.82.82,0,0,0,16,.57Z"/><path class="cls-1" d="M10,12.12a.82.82,0,0,0-1.1.35l-.74,1.44a.81.81,0,1,0,1.44.75l.75-1.44A.82.82,0,0,0,10,12.12Z"/><path class="cls-1" d="M7.53,4.45,6.09,3.7a.81.81,0,1,0-.75,1.44l1.44.75a.82.82,0,0,0,1.1-.35A.8.8,0,0,0,7.53,4.45Z"/><path class="cls-1" d="M19.08,10.44l-1.44-.75a.82.82,0,0,0-1.1.35.82.82,0,0,0,.35,1.1l1.44.74a.81.81,0,1,0,.75-1.44Z"/><path class="cls-1" d="M11.23,4.69c-2.44.77-3.33,4.15-.57,6.09,3.17,1.14,5.42-1.53,4.65-4A3.25,3.25,0,0,0,11.23,4.69Z"/><path class="cls-2" d="M7.5,3.33C2,3.33,1.79,8.61,1.7,9.16A4.28,4.28,0,0,0,0,12.72a3.66,3.66,0,0,0,3.45,3.94h12.6A4,4,0,0,0,20,12.44a4.2,4.2,0,0,0-2.92-3.81A4.38,4.38,0,0,0,13,6.22l-.52,0A5.5,5.5,0,0,0,7.5,3.33Z"/></g></g></svg>