<svg xmlns="http://www.w3.org/2000/svg" viewBox="0 0 23.66 18.12"><defs><style>.cls-1{fill:#c9ac68;}.cls-2{fill:gray;}</style></defs><g id="Layer_2" data-name="Layer 2"><g id="Layer_1-2" data-name="Layer 1"><path class="cls-1" d="M10,4a1,1,0,0,0,1-1V1a1,1,0,1,0-2,0V3A1,1,0,0,0,10,4Z"/><path class="cls-1" d="M4,10a1,1,0,0,0-1-1H1a1,1,0,0,0,0,2H3A1,1,0,0,0,4,10Z"/><path class="cls-1" d="M4.31,5.8A1,1,0,1,0,5.72,4.37L4.3,3A1,1,0,0,0,2.88,3a1,1,0,0,0,0,1.41Z"/><path class="cls-1" d="M4.37,14.28,3,15.7a1,1,0,1,0,1.42,1.41L5.8,15.69a1,1,0,0,0-1.43-1.41Z"/><path class="cls-1" d="M17,2.88a1,1,0,0,0-1.41,0L14.2,4.31a1,1,0,0,0,1.43,1.41L17,4.3A1,1,0,0,0,17,2.88Z"/><path class="cls-1" d="M10,6a4,4,0,0,0-2,7.41l5.43-5.57A4,4,0,0,0,10,6Z"/><circle class="cls-2" cx="13.59" cy="10.98" r="0.54"/><circle class="cls-2" cx="12.49" cy="13.17" r="0.54"/><circle class="cls-2" cx="15.05" cy="13.13" r="0.54"/><circle class="cls-2" cx="14" cy="15.19" r="0.54"/><circle class="cls-2" cx="11.64" cy="15.39" r="0.54"/><circle class="cls-2" cx="9.31" cy="15.77" r="0.54"/><circle class="cls-2" cx="10.35" cy="17.56" r="0.54"/><circle class="cls-2" cx="7.04" cy="17.35" r="0.54"/><circle class="cls-2" cx="14.95" cy="8.67" r="0.54"/><circle class="cls-2" cx="18.11" cy="9.12" r="0.54"/><circle class="cls-2" cx="19.11" cy="11.57" r="0.54"/><circle class="cls-2" cx="20.61" cy="8.98" r="0.54"/><circle class="cls-2" cx="23.11" cy="7.95" r="0.54"/><circle class="cls-2" cx="20.88" cy="13.61" r="0.54"/><circle class="cls-2" cx="22.06" cy="10.76" r="0.54"/><circle class="cls-2" cx="10.21" cy="13.61" r="0.54"/><circle class="cls-2" cx="16.58" cy="15.2" r="0.54"/><circle class="cls-2" cx="15.32" cy="17.22" r="0.54"/><circle class="cls-2" cx="12.8" cy="17.22" r="0.54"/><circle class="cls-2" cx="20.34" cy="17.35" r="0.54"/><circle class="cls-2" cx="17.79" cy="17.58" r="0.54"/><circle class="cls-2" cx="17.24" cy="13.08" r="0.54"/><circle class="cls-2" cx="19.13" cy="15.37" r="0.54"/><circle class="cls-2" cx="15.99" cy="10.88" r="0.54"/></g></g></svg>