<svg xmlns="http://www.w3.org/2000/svg" viewBox="0 0 20 19"><defs><style>.cls-1{fill:#c9ac68;}</style></defs><g id="Layer_2" data-name="Layer 2"><g id="Layer_1-2" data-name="Layer 1"><path class="cls-1" d="M19.25,12.5H2.75a.75.75,0,0,0,0,1.5h16.5a.75.75,0,0,0,0-1.5Z"/><path class="cls-1" d="M19.25,17.5H2.75a.75.75,0,0,0,0,1.5h16.5a.75.75,0,0,0,0-1.5Z"/><path class="cls-1" d="M18,15.75a.76.76,0,0,0-.75-.75H.75a.75.75,0,0,0,0,1.5h16.5A.76.76,0,0,0,18,15.75Z"/><path class="cls-1" d="M16,10a1,1,0,0,0,1,1h2a1,1,0,0,0,0-2H17A1,1,0,0,0,16,10Z"/><path class="cls-1" d="M1,11H3A1,1,0,0,0,3,9H1a1,1,0,0,0,0,2Z"/><path class="cls-1" d="M10,4a1,1,0,0,0,1-1V1A1,1,0,0,0,9,1V3A1,1,0,0,0,10,4Z"/><path class="cls-1" d="M15.66,5.76l1.41-1.42a1,1,0,1,0-1.41-1.41L14.24,4.34a1,1,0,1,0,1.42,1.42Z"/><path class="cls-1" d="M4.34,5.76A1,1,0,0,0,5.76,4.34L4.34,2.93A1,1,0,0,0,2.93,4.34Z"/><path class="cls-1" d="M6.3,11.5h7.4A3.94,3.94,0,0,0,14,10a4,4,0,0,0-8,0A3.94,3.94,0,0,0,6.3,11.5Z"/></g></g></svg>