<svg xmlns="http://www.w3.org/2000/svg" viewBox="0 0 20.59 20.75"><defs><style>.cls-1{fill:#c9ac68;}.cls-2{fill:#b25538;}.cls-3{fill:#283941;}.cls-4{fill:#b3b3b3;}</style></defs><g id="Layer_2" data-name="Layer 2"><g id="Layer_1-2" data-name="Layer 1"><path class="cls-1" d="M4,10.37a1,1,0,0,0-1-1H1a1,1,0,0,0,0,2H3A1,1,0,0,0,4,10.37Z"/><path class="cls-1" d="M10,4.37a1,1,0,0,0,1-1v-2a1,1,0,0,0-2,0v2A1,1,0,0,0,10,4.37Z"/><path class="cls-1" d="M10,16.37a1,1,0,0,0-1,1v2a1,1,0,0,0,2,0v-2A1,1,0,0,0,10,16.37Z"/><path class="cls-1" d="M4.34,14.62,2.93,16a1,1,0,1,0,1.41,1.42L5.76,16a1,1,0,0,0,0-1.41A1,1,0,0,0,4.34,14.62Z"/><path class="cls-1" d="M4.34,6.13a1,1,0,0,0,1.42,0,1,1,0,0,0,0-1.41L4.34,3.3a1,1,0,0,0-1.41,0,1,1,0,0,0,0,1.42Z"/><circle class="cls-1" cx="10" cy="10.37" r="4"/><circle class="cls-2" cx="17" cy="17.17" r="3.21"/><path class="cls-3" d="M18.59,14.39V2a1.58,1.58,0,1,0-3.16,0V14.39a3.21,3.21,0,1,0,3.16,0Z"/><path class="cls-4" d="M17,20.75a3.58,3.58,0,0,1-2-6.57V2A2,2,0,1,1,19,2V14.18a3.58,3.58,0,0,1-2,6.57Zm0-20A1.21,1.21,0,0,0,15.8,2V14.61l-.19.11a2.83,2.83,0,1,0,2.8,0l-.19-.11V2A1.21,1.21,0,0,0,17,.75Z"/><path class="cls-2" d="M17.63,15.09v-13a.62.62,0,1,0-1.24,0v13a2.19,2.19,0,1,0,1.24,0Z"/></g></g></svg>