<svg xmlns="http://www.w3.org/2000/svg" viewBox="0 0 19.41 20"><defs><style>.cls-1{fill:#c9ac68;}.cls-2{fill:#507282;}</style></defs><g id="Layer_2" data-name="Layer 2"><g id="Layer_1-2" data-name="Layer 1"><path class="cls-1" d="M15.22,5.62,16.6,4.26a1,1,0,0,0,0-1.38,1,1,0,0,0-1.37,0L13.86,4.24a1,1,0,0,0,1.36,1.38Z"/><path class="cls-1" d="M4.19,13.79,2.81,15.16a1,1,0,1,0,1.36,1.38l1.38-1.37a1,1,0,0,0-1.36-1.38Z"/><path class="cls-1" d="M4.24,5.55A1,1,0,0,0,5.62,4.19L4.26,2.81a1,1,0,0,0-1.38,0,1,1,0,0,0,0,1.37Z"/><path class="cls-1" d="M15.17,13.86a1,1,0,0,0-1.38,1.36l1.37,1.38a1,1,0,1,0,1.38-1.36Z"/><path class="cls-1" d="M9.74,3.88a1,1,0,0,0,1-1V1A1,1,0,0,0,8.79,1v2A1,1,0,0,0,9.74,3.88Z"/><path class="cls-1" d="M9.67,15.53a1,1,0,0,0-1,1v2a1,1,0,0,0,1.94,0l0-1.94A1,1,0,0,0,9.67,15.53Z"/><path class="cls-1" d="M3.88,9.67a1,1,0,0,0-1-1H1a1,1,0,0,0,0,1.94l2,0A1,1,0,0,0,3.88,9.67Z"/><path class="cls-1" d="M18.45,8.79H16.51a1,1,0,0,0-1,1,1,1,0,0,0,1,1h2a1,1,0,0,0,0-1.94Z"/><path class="cls-1" d="M12.47,7A3.88,3.88,0,0,0,7,6.94c-2.17,2.15-1.28,6.22,2.7,6.79C13.67,13.21,14.61,9.15,12.47,7Z"/><path class="cls-2" d="M6.34,8.74c-4.65,0-4.83,4.46-4.9,4.92a3.62,3.62,0,0,0-1.44,3A3.08,3.08,0,0,0,2.92,20H13.56a3.43,3.43,0,0,0,3.34-3.57,3.56,3.56,0,0,0-2.47-3.22,3.7,3.7,0,0,0-3.47-2,3.17,3.17,0,0,0-.44,0A4.63,4.63,0,0,0,6.34,8.74Z"/></g></g></svg>