<svg xmlns="http://www.w3.org/2000/svg" viewBox="0 0 20 20"><defs><style>.cls-1{fill:#c9ac68;}</style></defs><g id="Layer_2" data-name="Layer 2"><g id="Layer_1-2" data-name="Layer 1"><path class="cls-1" d="M19,9H17a1,1,0,0,0,0,2h2a1,1,0,0,0,0-2Z"/><path class="cls-1" d="M4,10A1,1,0,0,0,3,9H1a1,1,0,0,0,0,2H3A1,1,0,0,0,4,10Z"/><path class="cls-1" d="M10,4a1,1,0,0,0,1-1V1A1,1,0,0,0,9,1V3A1,1,0,0,0,10,4Z"/><path class="cls-1" d="M10,16a1,1,0,0,0-1,1v2a1,1,0,0,0,2,0V17A1,1,0,0,0,10,16Z"/><path class="cls-1" d="M15.66,5.76l1.41-1.42a1,1,0,1,0-1.41-1.41L14.24,4.34a1,1,0,1,0,1.42,1.42Z"/><path class="cls-1" d="M4.34,14.24,2.93,15.66a1,1,0,1,0,1.41,1.41l1.42-1.41a1,1,0,1,0-1.42-1.42Z"/><path class="cls-1" d="M4.34,5.76A1,1,0,0,0,5.76,4.34L4.34,2.93A1,1,0,0,0,2.93,4.34Z"/><path class="cls-1" d="M15.66,14.24a1,1,0,1,0-1.42,1.42l1.42,1.41a1,1,0,1,0,1.41-1.41Z"/><circle class="cls-1" cx="10" cy="10" r="4"/></g></g></svg>