<svg xmlns="http://www.w3.org/2000/svg" viewBox="0 0 24 23.27"><defs><style>.cls-1{fill:#507282;}.cls-2{fill:#8e9fa7;}</style></defs><g id="Layer_2" data-name="Layer 2"><g id="Layer_1-2" data-name="Layer 1"><path class="cls-1" d="M9,0C2.4,0,2.14,6.34,2,7a5.13,5.13,0,0,0-2,4.27A4.38,4.38,0,0,0,4.15,16H19.26A4.87,4.87,0,0,0,24,10.93a5.06,5.06,0,0,0-3.5-4.58,5.26,5.26,0,0,0-4.93-2.88c-.22,0-.42,0-.63,0A6.6,6.6,0,0,0,9,0Z"/><path class="cls-2" d="M7.51,19.88l-.76-.44L7.49,19a.51.51,0,0,0,.18-.69A.5.5,0,0,0,7,18.15l-.74.43v-.85a.5.5,0,0,0-.5-.5.5.5,0,0,0-.5.5v.85l-.75-.44a.49.49,0,0,0-.68.18A.51.51,0,0,0,4,19l.75.43L4,19.87a.5.5,0,1,0,.5.86l.73-.42v.85a.51.51,0,0,0,.5.5.5.5,0,0,0,.5-.5v-.85l.76.43a.49.49,0,0,0,.68-.18h0A.49.49,0,0,0,7.51,19.88Z"/><path class="cls-2" d="M13.69,21.49l-.75-.44.73-.42a.5.5,0,1,0-.5-.87l-.73.43v-.85a.5.5,0,0,0-.5-.5.5.5,0,0,0-.5.5v.85l-.76-.44a.49.49,0,0,0-.68.18.51.51,0,0,0,.18.69l.76.43-.74.43a.5.5,0,1,0,.5.86l.74-.42v.85a.5.5,0,0,0,.5.5.51.51,0,0,0,.5-.5v-.85l.75.43a.5.5,0,1,0,.5-.86Z"/><path class="cls-2" d="M19.91,19.88l-.75-.44.73-.42a.5.5,0,1,0-.5-.87l-.73.43v-.85a.5.5,0,0,0-.5-.5.5.5,0,0,0-.5.5v.85l-.76-.44a.49.49,0,0,0-.68.18.51.51,0,0,0,.18.69l.76.43-.74.43a.5.5,0,0,0,.5.86l.74-.42v.85a.5.5,0,0,0,.5.5.51.51,0,0,0,.5-.5v-.85l.75.43a.49.49,0,0,0,.68-.18h0A.49.49,0,0,0,19.91,19.88Z"/></g></g></svg>