<svg xmlns="http://www.w3.org/2000/svg" viewBox="0 0 22.14 22.03"><defs><style>.cls-1{fill:#507282;}</style></defs><g id="Layer_2" data-name="Layer 2"><g id="Layer_1-2" data-name="Layer 1"><path class="cls-1" d="M22.14,12.42a7.22,7.22,0,0,1-3.47.17C20,10.78,21,8,19.82,4.13a7.32,7.32,0,0,1-2.27,2.54C17.21,4.48,16,1.93,12.47,0a7.54,7.54,0,0,1,.19,3.31C10.84,2,8.11,1,4.22,2.23A7.47,7.47,0,0,1,6.74,4.42C4.53,4.76,1.93,6,0,9.56a7.23,7.23,0,0,1,3.44-.17c-1.33,1.81-2.28,4.54-1.12,8.43a7.49,7.49,0,0,1,2.16-2.47C4.82,17.54,6.07,20.1,9.55,22a7.3,7.3,0,0,1-.14-3.48C11.22,20,14,21,18,19.77a7.53,7.53,0,0,1-2.54-2.23C17.68,17.19,20.23,15.92,22.14,12.42Z"/></g></g></svg>