<svg xmlns="http://www.w3.org/2000/svg" viewBox="0 0 27.53 22.68"><defs><style>.cls-1{fill:#c9ac68;}.cls-2{fill:#507282;}</style></defs><g id="Layer_2" data-name="Layer 2"><g id="Layer_1-2" data-name="Layer 1"><path class="cls-1" d="M20.15,5.34a.81.81,0,0,0-1-.53l-1.55.49a.81.81,0,1,0,.49,1.55l1.55-.49A.83.83,0,0,0,20.15,5.34Z"/><path class="cls-1" d="M6.72,8.73l-1.55.49a.83.83,0,0,0-.53,1,.81.81,0,0,0,1,.53l1.55-.49a.8.8,0,0,0,.53-1A.82.82,0,0,0,6.72,8.73Z"/><path class="cls-1" d="M9.9,2.61a.82.82,0,0,0,1,.53.81.81,0,0,0,.53-1L11,.57a.8.8,0,0,0-1-.53.82.82,0,0,0-.53,1Z"/><path class="cls-1" d="M14.89,13a.83.83,0,0,0-1-.53.81.81,0,0,0-.53,1L13.83,15a.8.8,0,0,0,1,.53.82.82,0,0,0,.53-1Z"/><path class="cls-1" d="M16.14.57h0a.81.81,0,0,0-1.09.35L14.3,2.36a.81.81,0,1,0,1.44.75l.75-1.44A.82.82,0,0,0,16.14.57Z"/><path class="cls-1" d="M10.15,12.12a.82.82,0,0,0-1.1.35L8.3,13.91a.81.81,0,1,0,1.44.75l.75-1.44A.82.82,0,0,0,10.15,12.12Z"/><path class="cls-1" d="M7.72,4.45,6.27,3.7a.81.81,0,1,0-.74,1.44L7,5.89a.82.82,0,0,0,1.1-.35A.81.81,0,0,0,7.72,4.45Z"/><path class="cls-1" d="M19.26,10.44l-1.44-.75a.82.82,0,1,0-.75,1.45l1.44.74a.81.81,0,1,0,.75-1.44Z"/><path class="cls-1" d="M11.41,4.69c-2.43.77-3.33,4.15-.57,6.09,3.18,1.14,5.43-1.53,4.66-4A3.26,3.26,0,0,0,11.41,4.69Z"/><path class="cls-2" d="M7.5,3.28C2,3.28,1.79,8.56,1.7,9.11A4.24,4.24,0,0,0,0,12.66,3.66,3.66,0,0,0,3.45,16.6h12.6A4.05,4.05,0,0,0,20,12.38a4.2,4.2,0,0,0-2.92-3.81A4.37,4.37,0,0,0,13,6.17a4.43,4.43,0,0,0-.52,0A5.5,5.5,0,0,0,7.5,3.28Z"/><path class="cls-2" d="M1.56,18.93c5.35,0,10.7-.09,16.05,0a1.58,1.58,0,0,1,.77.14,1.14,1.14,0,0,1,.5,1.43c-.17.47-1.17,1.06-1.57.51-.56-.77-1.86,0-1.29.76a2.43,2.43,0,0,0,3.36.43,2.73,2.73,0,0,0,.71-3.53c-.65-1.11-1.84-1.24-3-1.24H1.56a.75.75,0,0,0,0,1.5Z"/><path class="cls-2" d="M9.54,16.67H20.78c1.19,0,2.4.07,3.59,0a3.45,3.45,0,0,0,2.43-1.1,3.42,3.42,0,0,0,.06-4.15,3.29,3.29,0,0,0-4-.8,2.73,2.73,0,0,0-1.12,2.23.75.75,0,0,0,1.5,0,1.23,1.23,0,0,1,.57-1c1.25-.54,2.35.75,2.23,1.88s-1.15,1.48-2.12,1.48H9.54a.75.75,0,0,0,0,1.5Z"/></g></g></svg>