<svg xmlns="http://www.w3.org/2000/svg" viewBox="0 0 24 23.82"><defs><style>.cls-1{fill:#507282;}</style></defs><g id="Layer_2" data-name="Layer 2"><g id="Layer_1-2" data-name="Layer 1"><path class="cls-1" d="M9,0C2.4,0,2.14,6.34,2,7a5.13,5.13,0,0,0-2,4.27A4.38,4.38,0,0,0,4.15,16H19.26A4.87,4.87,0,0,0,24,10.93a5.06,5.06,0,0,0-3.5-4.58,5.26,5.26,0,0,0-4.93-2.88c-.22,0-.42,0-.63,0A6.6,6.6,0,0,0,9,0Z"/><path class="cls-1" d="M5.11,20.66h7.26c-.14,0-.09,0,0,0s.34.11.22.06c.23.1.28.13.36.3a1.12,1.12,0,0,1,0,.88.62.62,0,0,1-.44.35,1.61,1.61,0,0,1-.49.06c-.11,0,.08,0-.08,0,.11,0-.06,0-.08,0s0,0,0,0,0,0,0,0l0-.1s-.06-.13,0,0c0-.05,0-.1-.05-.15a.59.59,0,0,0,0-.13c0-.13,0,.18,0,.06v-.09a.75.75,0,0,0-1.5,0,2.13,2.13,0,0,0,.36,1.18,2,2,0,0,0,2.18.68,2.24,2.24,0,0,0,1.72-2,2.3,2.3,0,0,0-1-2.23,3.48,3.48,0,0,0-2-.38H5.11a.75.75,0,0,0,0,1.5Z"/><path class="cls-1" d="M3.38,18.42h14c.8,0,1.64-.08,2.19.64a1.77,1.77,0,0,1-1.66,2.79,1.06,1.06,0,0,1-.84-1.1.75.75,0,0,0-1.5,0c0,2.32,2.46,3.21,4.34,2.12a3.29,3.29,0,0,0,1.27-3.94A3.09,3.09,0,0,0,18.76,17a18,18,0,0,0-3.28-.07H3.38a.75.75,0,0,0,0,1.5Z"/></g></g></svg>