<svg xmlns="http://www.w3.org/2000/svg" viewBox="0 0 20 19.74"><defs><style>.cls-1{fill:#c9ac68;}.cls-2{fill:#507282;}</style></defs><g id="Layer_2" data-name="Layer 2"><g id="Layer_1-2" data-name="Layer 1"><path class="cls-1" d="M19,9H17a1,1,0,0,0,0,2h2a1,1,0,0,0,0-2Z"/><path class="cls-1" d="M3,9H1a1,1,0,0,0,0,2H3A1,1,0,0,0,3,9Z"/><path class="cls-1" d="M10,4a1,1,0,0,0,1-1V1A1,1,0,0,0,9,1V3A1,1,0,0,0,10,4Z"/><path class="cls-1" d="M17.07,2.93h0a1,1,0,0,0-1.41,0L14.24,4.34a1,1,0,1,0,1.42,1.42l1.41-1.42A1,1,0,0,0,17.07,2.93Z"/><path class="cls-1" d="M5.76,4.34,4.34,2.93a1,1,0,0,0-1.41,0h0a1,1,0,0,0,0,1.41L4.34,5.76A1,1,0,0,0,5.76,4.34Z"/><path class="cls-1" d="M10,6C6.85,6,4.56,9.63,7.07,12.93,10.37,15.44,14,13.15,14,10A4,4,0,0,0,10,6Z"/><path class="cls-2" d="M2.94,16.57H10.2c-.14,0-.09,0,0,0s.34.12.23.06c.22.11.27.14.36.31a1.16,1.16,0,0,1,0,.88.57.57,0,0,1-.44.34,2,2,0,0,1-.49.07c-.1,0,.08,0-.08,0,.12.05-.05,0-.07,0s0,0,0,0l0,0-.06-.1s-.05-.14,0,0A.58.58,0,0,1,9.67,18l0-.13c0-.13,0,.18,0,.06s0-.06,0-.09a.75.75,0,0,0-1.5,0A2.14,2.14,0,0,0,8.51,19a2,2,0,0,0,2.17.67,2.2,2.2,0,0,0,1.72-2,2.32,2.32,0,0,0-1-2.23,3.5,3.5,0,0,0-2-.39H2.94a.75.75,0,0,0,0,1.5Z"/><path class="cls-2" d="M1.22,14.34h14c.8,0,1.64-.08,2.19.63a1.78,1.78,0,0,1-1.66,2.8,1.09,1.09,0,0,1-.85-1.1.75.75,0,0,0-1.5,0c0,2.32,2.47,3.21,4.35,2.12A3.3,3.3,0,0,0,19,14.84a3.09,3.09,0,0,0-2.4-1.93,18,18,0,0,0-3.28-.07H1.22a.75.75,0,0,0,0,1.5Z"/><path class="cls-2" d="M12.76.69A2.84,2.84,0,0,0,9.89,3.58,2.1,2.1,0,0,0,9,5.34a1.81,1.81,0,0,0,1.72,2H17a2,2,0,0,0,2-2.1,2.1,2.1,0,0,0-1.45-1.89,2.17,2.17,0,0,0-2-1.19h-.25A2.75,2.75,0,0,0,12.76.69Z"/><path class="cls-2" d="M3.55,6.89A1.82,1.82,0,0,0,1.72,8.74a1.33,1.33,0,0,0-.54,1.12A1.15,1.15,0,0,0,2.27,11.1h4A1.29,1.29,0,0,0,7.5,9.77a1.32,1.32,0,0,0-.92-1.2,1.38,1.38,0,0,0-1.3-.76H5.12a1.76,1.76,0,0,0-1.57-.92Z"/></g></g></svg>